<svg height="700pt" viewBox="0 0 700 700" width="700pt" xmlns="http://www.w3.org/2000/svg"><path d="m461.86 199.57c-2.1094 7.8906-4.7422 15.684-6.2227 23.691-2.918 15.758-6.1562 31.457-8.875 47.262l-.003906-.003906c-2.4297 16.305-3.9688 32.734-4.6094 49.207-.76953 12.484-.96094 24.957-1.0039 37.449-.007813 2.2734-.24609 4.5156-.1875 6.8281-.0625 3.1875 2.1797 5.9609 5.3125 6.5703-5.5234-1.8828-5.082 1.4219-4.9922 4.6602.39453 13.941.28125 27.914 1.168 41.824.98438 15.438 3.3242 30.793 4.1641 46.234.53516 9.8555 3.7461 19.328 3.3242 29.277-.10156 2.3711-2.332 5.0234.46875 7.4531-.88672 2.3633-2.7461 4.2305-5.1055 5.1289-2.4688-1.0742-5.293-.96094-7.668.30078-10.023 1.9258-20.227 2.7266-30.426 2.3867-12.488-.011719-24.973.90234-37.469 1.1641-11 .22656-22.016-.17969-33.008.21094h.003906c-10.598 0-21.188-.64844-31.703-1.9453-13.336-1.1602-26.59-3.0312-39.887-4.2344-8.1641-.52734-16.242-1.9688-24.09-4.293-2.6484-.25-5.082-1.5664-6.7422-3.6445-1.6602-2.082-2.4023-4.7461-2.0586-7.3828-.86719-13.262-3.0508-26.383-4.0234-39.648-1.2188-16.621-3.3359-33.16-3.6445-49.875h.003906c.089844-10.641-.625-21.27-2.1328-31.801-2.8359-16.445-4.293-33.039-6.8477-49.5-2.3438-15.109-2.9648-30.488-5.2227-45.617-1.7266-11.57-2.2773-23.25-4.3008-34.801-1.8477-10.539-2.2617-21.328-4.3242-32.145-.84766 4.5195-2.0508 9.0078-2.4688 13.566-1.0859 10.379-2.8516 20.676-5.2773 30.82-.23047.89844-.38672 1.8125-.47266 2.7305-1.0391 16.906-2.6836 33.801-3.3438 50.695-.32812 8.3906-.66406 16.902-.92188 25.316-.53906 17.773 1.6172 35.527.35938 53.207-.82031 11.395-.51562 22.84.90625 34.176.097656 5.1719-.13281 10.344-.69141 15.484-.003906 9.5039.68359 19.008.75391 28.512.15625 21.141-.55078 42.316.44922 63.414.45312 9.5625-2.1367 19.109.37891 28.648.18359 2.3438-.17969 4.6992-1.0586 6.8789-.16016.87109-.71875 1.6172-1.5078 2.0156-.79297.39453-1.7266.39844-2.5195.003907-12.434-3.4727-25.191-2.1445-37.816-2.2383-3.2578.51562-6.5859-.34766-9.1797-2.3867-2.5938-2.0391-4.2188-5.0664-4.4844-8.3555-2.2773-12.039-3.6719-24.18-4.9102-36.367-1.6602-16.34-2.332-32.734-2.418-49.102-.066406-13.051 2.6602-26.16 2.0508-39.145-.46094-9.832 2.6523-19.285 1.418-28.949l.003906-.003906c-.85156-12.668-1.0078-25.371-.46875-38.059-.10938-9.207.39453-18.414 1.5078-27.559.66406-5.707.69531-11.488.93359-17.242.66016-15.91.90234-31.848 2.0039-47.727 1.5508-22.328 3.2305-44.668 5.8438-66.887 1.332-11.922 3.3164-23.762 5.9414-35.465 3.5312-15.316 6.0547-30.871 10.824-45.891h.003906c1.6953-5.3594 3.6875-10.617 5.9648-15.75 1.4375-2.7617 2.3125-5.7734 2.5781-8.8711.57422-3.2773 2.3633-6.2188 5.0078-8.2383 3.6953-4.7422 8.5625-8.4375 14.121-10.723 13.426-3.9922 27.281-6.3594 41.27-7.0547 3.1172-.039062 6.2344.21484 9.3086.76562 5.1875 1.0273 10.574.046875 15.066-2.7461 4.4922-2.7891 7.7539-7.1836 9.1289-12.293 1.0898-2.7031.58203-5.6289 1.7383-7.7031 4.6953-8.4062 1.25-17.898 4.1758-26.461 1.1484-5.9609 6.1953-10.387 12.258-10.742 7.5352-.79297 15.148-1.8516 22.656-3.2969 4.6094-.88672 9.168.57422 13.938.12891h-.003907c12.043-1.3281 24.172-1.6992 36.273-1.1133 5.7383.47656 11.422 1.4219 17.004 2.8281 5.8008 1.3594 11.746.70703 17.598 2.3398 6.6367 2.1836 12.316 6.582 16.09 12.461 7.5586 9.9922 8.8242 22.211 11.012 33.973 1.1367 6.0938 4.3633 11.273 5.9883 17.094.8125.89844 1.9141 1.4727 3.1133 1.6289 6.6016 7.5039 15.59 7.7031 24.465 7.9766 7.8711.24219 15.773-.20312 23.633.1875v-.003906c8.4492-.43359 16.797 1.9766 23.715 6.8398 7.5742 6.4453 15.172 12.691 16.902 24.066 2.4922 16.398 6.9414 32.496 10.223 48.785 2.4531 12.172 4.4062 24.445 6.5352 36.684 2.3672 13.625 4.832 27.234 6.9609 40.895 1.418 9.1016 2.2617 18.293 3.457 27.43 1.4141 10.824 3.1094 21.613 4.3555 32.453 1.3672 11.918 3.4609 23.73 4.293 35.734.6875 9.9336 2.7656 19.762 4.0586 29.66 1.2344 9.4648 2.2734 18.953 3.3555 28.438 1.1719 10.258 2.3633 20.516 3.4297 30.785 1.1289 10.891 2.2539 21.789 3.1445 32.699 1.1562 14.184 2.6055 28.32 5.125 42.34 1.0781 5.9883 1.0078 12.105 2.2148 18.125 1.8359 9.1367 2.9023 18.422 4.4727 27.617v.007812c.94141 2.2812.55859 4.8945-.99609 6.8125-1.5586 1.9141-4.0391 2.8242-6.4648 2.3711-12.184.57031-24.309 2.2305-36.535 2-2.2031-.042969-4.4062.007813-6.6055-.089844h-.003907c-2.0781.22266-4.1484-.47656-5.668-1.9141-1.5156-1.4375-2.3281-3.4688-2.2188-5.5586-2.082-12.027-1.5898-24.195-3.4727-36.141-1.8242-11.578-2.8867-23.23-4.168-34.863-.67578-6.1211-.74219-12.309-1.4531-18.422-1.1094-9.5742-2.9219-19.039-4.7734-28.508-1.9961-10.199-3.0977-20.574-4.668-30.859-1.7812-11.668-3.75-23.309-5.457-34.984-1.168-7.9883-2.125-16.016-3.0156-24.043-1.4648-13.18-3.8398-26.207-6.0469-39.27-2.3867-14.145-5.4336-28.168-6.4258-42.566v.003906c-.67578-9.7812-2.0742-19.5-4.1797-29.074-1.9883-9.1094-4.7344-18.039-8.2109-26.691zm59.09 35.371c3.2383 1.543 1.8945 5.0156 3.1445 7.3711.60547 1.1445-1.2734 3.3672 1.0547 3.3516v.003906c1.5977-.38281 2.5859-1.9805 2.2148-3.5781-.38672-8.3867-1.4062-16.73-3.0469-24.965-3.2891 1.9805-3.0156 1.9102-2.3203 4.5977 1.5 3.3438 2.1719 7 1.9609 10.66-.52734-5.0703-2.7461-.96484-4.2656-1.8047-1.9922-1.1016-1.8516 1.25-1.6836 2.0977.47266 2.4062 1.2188.042969 1.8672.027344 1.6992-.042969.28516 1.2891.66016 1.8828-1.0117 1.8984-1.9492 3.8438-3.0625 5.6797-1.1172.91406-1.4766 2.4688-.86719 3.7773.67969 1.0391 1.5469.53125 2.4805.34766 1.5977-.30859 2.6758-1.8047 2.4688-3.418-.070312-2.0234-.27344-4.0352-.60547-6.0312zm-154.07-157.66c2.3867 1.1367 2.6836 4.2109 5.3789 6.0977 0-1.7422.050782-2.7969-.007812-3.8398-.30078-16.715-1.5664-33.395-3.793-49.961-.26172-1.5234-.70312-3.2539-2.4375-2.5859l-.003906.003907c-4.0195.96875-8.2109.97656-12.238.023437.22656 4.3203.32031 8.6523.72656 12.957h.003906c.12109 2.5898 1.3867 4.9961 3.4531 6.5664 4.4297 3.2734 8.2461 7.3086 11.27 11.918.61719 1.082 1.9961 2.6406.45703 3.7773-1.4961 1.1055-2.0547-.80078-2.8203-1.6289-3.6758-3.9922-7.3086-8.0273-11.199-12.312-.61719 7.2734-.082031 8.4023 7.7305 16.879 1.168-1.5547-1.4609-2.8594-.15234-4.543v-.003906c2.5117 2.9023 4.5391 6.1875 6 9.7344.77734 1.4727 4.3711 5.8945-2.1562 4.8125-.050782.73438-.097657 1.4688-.15625 2.1914-3.3633-4.7617-6.7266-9.5273-10.316-14.613-.37891 6.832 8.7969 21.664 13.668 22.66.58203-3.4336-4.1133-4.6523-3.4062-8.1328zm-215.78 121.44c-.17188-1.5508-1.3047-2.9805-2.4961-2.2148v-.003906c-1.1719 1.1758-1.9766 2.6641-2.3203 4.2852-.32812.91016.55078 1.1328 1.4062 1.2656 2.4297.38672 2.3047-1.2773 2.5039-2.8242v.003907c.29297-.3125.66406-.53906 1.0703-.66016 4.2383.56641 8.6445 2.2539 11.945-2.3477.76172-1.0625 1.707-.44922 1.8711.76562.41016 2.9766-3.2266 7.5625-5.6328 6.5312l.003906-.003906c-3.625-.76172-7.3945-.48438-10.867.80078-4.2305.35547-3.3008 3.4609-3.2383 5.9805.074218.55469.37109 1.0586.82031 1.3906.45312.33203 1.0195.46484 1.5742.36719 1.8086.078124 1.4609-1.1562 1.4805-2.2148h-.003906c-.41797-1.3633.15234-2.8398 1.3789-3.5664.71484 2.25-1.7266 5.4258 1.5977 6.6133h-.003906c2.9375.91406 5.9531 1.5586 9.0039 1.9297 1.0977.17969 2.9102-2.0156 3.1836.55859.1875 1.7617-1.5352 2.3203-3.3477 2.4219-1.5195-.16406-3.0078.52734-3.8633 1.7969-.85547 1.2695-.93359 2.9102-.20703 4.2578 2.4688 6.6367 2.1602 7.6328-3.6445 11.375-.86328.42188-1.4023 1.3164-1.375 2.2773-.007813.40625.20703.78125.55469.98438.35156.20312.78125.20312 1.1328 0 3.5469-1.0625 3.25.92578 3.0898 3.3984-.11328 1.7539-.69922 3.3516-.90234 5.0391v-.003906c-.21094.90625-.078125 1.8555.375 2.668.85938.44922 1.9102.26562 2.5625-.44922.69922-.47266 1.2148-1.5664 2.4414-.83203.72266 2.8867-2.168 2.8203-3.3047 4.1836-1.6172 1.9375-4.6992 3.7461-2.3906 7.1055.60937.89062 1.7539 1.7617-.097657 2.4531v-.003906c-1.0312.50781-2.2773.24219-3.0195-.63672-.32422-.86328-.20703-1.8359.3125-2.6016.066406-1.2461.97266-3.0273-1.4141-3.1953-2.3242-.16406-1.4961 1.7852-2.0156 2.918-.61328 1.3359 1.3594 2.6602-.23828 3.875-.80469.61328-1.2656 2.0703-.51953 2.3789v.003906c.86719.85938 2.1367 1.1719 3.3086.81641 1.2344-.53906 2.5117-.96094 3.8242-1.2656.46875 1.7852-2.7188 1.0742-1.9023 3.1484 1.8008.33984 3.668.10156 5.3242-.6875 1.207-.054687 2.4531-2.707 3.418-.54688.67188 1.5039-1.4336 2.5-2.8086 3.0742-1.0352.34375-2.1289.48828-3.2227.42969-3.7344.24219-7.0898 2.375-8.8945 5.6523-2.0039 2.6836-1.2734 4.1445 1.3359 5.5195v.003906c.054688-2.1914.70313-4.3281 1.875-6.1836-2.1367 8.8516 3.5781 7.1719 9.2031 7.582-4.582 3.0391-11.453 1.9375-9.4922 9.2734-.33594-1.1641-.49219-2.375-.46484-3.5898-.046875-1.25.027344-2.9297-1.6094-2.8984-1.4727.027343-3.1758.69531-2.4453 2.9336-1.4258-.625-3.3086 1.2734-4.2188-.16797-1.0469-1.668 1.3945-2.0469 2.0586-3.1641.80859-1.0469.66406-2.5391-.33203-3.4102-1.2852-1.2539-1.5352-3.2305-.59766-4.7617.62891-1.0938.66016-2.4336.082031-3.5547-.35938-.30469-.84766-.40625-1.2969-.26563-.99609.94922-1.4062 2.3594-1.0859 3.6953-.73047 6.5469-1.0977 13.129-1.0977 19.715-.003907 1.2031-.8125 2.8047.83594 3.0859 1.2344.21094 1.7422-1.168 2.25-2.4844.33594-3.1406 1.5-6.1367 3.375-8.6836.69531 2.5625.83594 5.2422.41016 7.8594-.45312 1.4766.89062 3.2031 1.6484 2.5781 2.9453-2.4258 3.082 1.0898 4.9414 1.3398-1.0625.96484-2.5156 1.3789-3.9258 1.1211-2.7891.39453-5.5 3.6953-8.4648.22266-.39062-.45703-1.082.23047-1.2148.93359l-.003906-.003906c-.55859 1.8125-.58594 3.7422-.074219 5.5664.12109.38672.42969.68359.81641.79297.39062.10938.80859.011718 1.1133-.25391 1.9023-3.0586 2.3555 1.1445 3.418.75391h-.003907c.55469-1.2812.94531-2.6289 1.168-4.0078 2.9609 5.043-2.7578 6.0625-3.9375 8.9961-1.4453-.62109 1.2109-3.6328-1.793-3.3164-1.9336.20312-1.2734 2.2266-1.3516 3.5312l.003906.003906c.25 5.0078-.03125 10.027-.83984 14.977-.31641 1.125.26172 2.3125 1.3438 2.7539 3.043-.19141 5.7422-2.0234 7.0391-4.7812-.52344-2.9883.14453-6.0586 1.8594-8.5625 0 2.293-.019531 4.1719.003906 6.0508.11719 9.7383.1875 9.8086 9.0195 9.6836v.003906c.19531.16797.35938.36719.48828.58984-2.9883.4375-5.6484 2.1172-7.332 4.6211-3.6641-2.7344-9.6211 2.0586-12.422-4.1484 1.1797 10.199-2.4727 19.852-1.2227 29.711.59766-.32031.99219-.91797 1.0547-1.5898-.003906-.91406.37891-1.7852 1.0547-2.3945.67578-.61328 1.5781-.91016 2.4844-.81641 1.5742.16797 1.5625 1.918.41016 3.3711-.45703.57422.09375 1.2891 1.0312 1.6641 2.6992 1.0742 4.6094 1.1641 5.3555-2.3984 1.582-7.5352.63281-9.1641-6.6172-10.672-.9375-.19531-2.3672.12109-2.5664-1.4883v.003906c.58594-1.3164 1.875-2.1758 3.3164-2.2109 5.0664 1.8867 7.3711-.078124 7.8945-5.4141v.003906c1.2305 2.4414 1.6797 5.2031 1.293 7.9141-1.3359 2.7773-1.9727 5.8438-1.8555 8.9258-.90234 6.2422.36719 7.5742 6.4609 7.6797-2.7344 2.3164-8.0234 1.7578-6.8984 7.1289.66016 3.1641-1.4062 7.0781 2.8711 9.1289h-.003907c-2.0547 1.8477-4.8516 2.6367-7.5703 2.1406-2.1602.41797-4.3984.17188-6.418-.70703-.3125-.24609-.72266-.33594-1.1055-.23438-.38672.097656-.70312.37109-.85938.73828-.30078 2.6289.79688 5.2227 2.8906 6.8359 1.3359.41406 2.6445.90234 3.9219 1.4688 2.6797 1.2344 4.3672.60547 5.0742-2.8555-.55859 3.5664 2.6953 2.9609 4.6016 4.4883-6.0898 2.1992-2.1211 7.1367-4.1094 11.062.39844-9.1875-6.7812-9.4805-12.309-12.488l.003906.003906c.054687 1.7461 1.0938 3.3164 2.6797 4.0469-4.4531 2.4336-4.1328 6.8984.96484 11.848-3.4844.81641-4.8477 2.6953-3.1836 6.0898.19922.57031.10938 1.1992-.23828 1.6914-2.6719 2.7852-.75 6.1875-1.3281 9.2383-.14844.82031.33203 1.625 1.1289 1.8828 1.1914.39062 1.375-.73438 1.918-1.4883h-.003906c1.7461-2.9219 2.6836-6.2578 2.7148-9.6602.16016-1.4805-.81641-4.3398 1.6367-4.0859 1.9531.20312 1 3.0078.8125 4.4688v-.003906c-.94531 4.2852-1.5 8.6445-1.6602 13.027.37891 7.6836.26562 7.6875 7.5938 8.6484.24219.15625.44141.37109.58594.62109-1.4688 1.1953-3.375 1.7148-5.2461 1.4258-2.4219.19922-3.6641 1.1797-2.3594 3.6133 1.4844 2.7773-.96875 3-2.1875 4.4648-2.6211 3.1406-2.3281-1.5234-3.7578-1.0469h-.003907c-.71484 1.4414-.60547 3.1562.29297 4.4922 4.6719 3.9961 10.664 6.1055 16.809 5.9141-2.7695 2.1445-6.4336 2.7422-9.7383 1.582-5.4883-.69141-6.0898-.16406-5.7422 5.2383.26953 4.1953.60547 4.418 5.0938 3.5352.38281-.085938.78125-.015625 1.1094.20312 1.3125 3.8555 5.0156 2.3438 7.7109 3.4141-1.6758 2.9961-9.0586-.60156-7.1484 6.1133h.003906c.48828 2.5195 1.5664 4.8867 3.1445 6.9141 1.7266 1.7617 4.8672.035156 7.3477.96875-2.2383.55078-4.3633 1.5-6.2695 2.7969-2.8594 1.9297-1.4805 3.9688-.82422 6.1758.18359.79297-.23828 1.6055-.99219 1.9102-1.5.98828-2.0938 2.8984-1.418 4.5625.36328 2.1523.64453 4.3203 1.0078 6.4727.49219 2.918 4.5859 1.0391 5.2617 3.9141l.003906.003906c-2.2461.75391-4.5547 1.3125-6.8945 1.6758-1.6953.13281-3.582-.15234-3.168 2.0859.5 2.6836-1.0391 6.9414 2.4883 7.668v-.003906c3.9062.89453 7.8789 1.4453 11.879 1.6484 8.7969.25 17.484-1.5586 26.254-.87891.92188.070313 2.5391.26562 2.3555-.69141-.59766-3.1016 1.8398-5.5273 1.3633-8.6328v-.003906c-.53906-4.043-.82812-8.1172-.86719-12.199-.51953-17.871-.77344-35.754-1.5156-53.617-.31641-7.6484-.57422-15.281-.3125-22.922.44922-13 .61328-26.027 1.668-38.977.91797-11.289-4.2461-22.508-.039063-33.766h.003907c.035156-.93359-.097657-1.8672-.39062-2.7539-1.4414-9.293-1.5312-18.746-.26562-28.066.38672-2.3047.62891-4.6328.72656-6.9688.51172-5.75-2.3281-11.23-1.0391-17.105h-.003907c1.0664-4.5703 1.6484-9.2344 1.7422-13.926.53516-16.52 2.2422-32.977 5.1055-49.258 1.9844-13.516 2.1797-27.336 7.0938-40.453 1.7617-3.8594 2.4688-8.1211 2.0586-12.344-2.8164-16.707-7.0547-33.148-12.66-49.137-3.1055-8.9844-6.4766-17.855-9.7461-26.773-1.4102-3.8477-2.1016-7.5273-7.6172-6.5078 3.875-1.6094 3.875-1.6094 1.8906-8.1445-3.7383 5.0547-6.2383 10.918-7.293 17.113-.24609 1.043.64062 1.3164 1.3555 1.5859 4.2148 1.5703 2.0469 2.5352-.023438 4.3555-1.082.94922-3.4453.027343-3.4648 2.5508 3.4023 1.5781 7.5469-.88672 11.723 2.2617v-.003907c-4.6719-.60547-9.418.12891-13.691 2.1172 1.5352.69922 2.6094 1.1641 3.6562 1.6719l.003906.003906c1.1992.39844 2.1875 1.2734 2.7305 2.418-3.4258-.32422-7.7422 3.6992-6.0547 5.7344 3.7773 4.5547-.73047 8.2891.60156 12.934-1.4688-.93359-2.5117-2.4102-2.8945-4.1055-.76563-1.082-2.1836-1.3203-2.582-.070312v-.003907c-.92578 2.9766-1.6016 6.0195-2.0234 9.1055-.37109 2.5938 3.293.64453 3.5742 3.3516-4.4883-.98828-4.6797 2.0898-4.5664 5.1914-.22266 2.7852-.70703 5.543-1.4414 8.2383-.53516 3.707-.95312 7.4375-1.3477 11.164-.070313.68359-.27734 1.6914.88281 1.793v-.003906c.44922 0 .87891-.17578 1.2031-.48828 1.7109-4.2266 2.4336-8.793 2.1172-13.34 1.9727-.32031 4.6641-.39844 3.9453 2.1523h-.003906c-1.5391 4.5469-2.1328 9.3672-1.7344 14.156.53125 4.9219-3.4258 10.328-5.4219 15.535zm286.01 58.32v-.003906c1.5078.050782 2.9531-.58594 3.9375-1.7266.98438-1.1406 1.3984-2.668 1.125-4.1484.042969-3.918.62891-7.8125 1.7383-11.57.88281-3.2266.75391-6.4492-3.5859-7.0312.9375-2.6172 4.0898 2.668 4.8672-1.9492 1.5156-8.9883 3.6758-17.871 5.6016-26.793.67188-3.1133 3.9062-5.793 1.5703-9.4102 5.2109-5.2539 4.8281-12.793 7.6797-19.039 1.8359-4.0234-.81641-6.3945-5.4102-5.918v.003906c-1.2852.007813-2.332 1.0273-2.3789 2.3086-.89062 2.1523-1.2617 4.4844-1.0742 6.8047.19531.72266 1.5508.5625 1.9883-.039062.625-1.0391 1.1484-2.1367 1.5664-3.2734 1.8477 2.6133 1.8477 2.6133.53906 4.2656-2.375 2.6562-3.9102 5.957-4.418 9.4844-2.0742-2.9492-5.5352-4.6094-9.1367-4.3828-4.5859 1.1914-9.3594 1.457-14.047.78516-.40625-.17578-.86328-.19141-1.2812-.039062-2.9219 3.2031-9.2617 4.1875-7.0117 10.852-.14062 1.1211-.57422 2.1914-1.25 3.0977-2.3086-1.4531-1.207-2.9844-.85156-4.4219.82031-3.3047.72266-6.7695-.28125-10.023-.76953-2.4297-4.3828-.72656-6.2695-2.2266-.15234-.20703-.28516-.42578-.39062-.66016 3.1602-1.0391 8.0586 1.9219 9.1367-3.7109.92188-2.9648 1.543-6.0156 1.8555-9.1016-.078124-4.5039-6.2695-.80859-7.4062-4.9883 3.3867-1.6094 9.0352 4.4219 10.77-3.6445-.33984 1.1133-.16406 2.3242.48047 3.293.64844.96875 1.6953 1.5938 2.8555 1.707 4.8086 1.2383 9.7461 1.9258 14.711 2.0547 1.1523.082031 2.3828-.085938 2.293-1.6367.21094-3.1172.83594-6.1914 1.8594-9.1445.36719-1.7852.25781-3.082-2.5273-3.1641-4.9336.1875-9.8711-.16406-14.73-1.0469-1.5547-.38672-2.8828-1.1406-2.3633-2.8203.65234-2.1172 2.125-.34375 3.0195-.097656 4.9531 1.5117 10.133 2.1445 15.305 1.8711 1.4258.33203 2.8594-.52344 3.2422-1.9375 1.0508-4.3516 2.2344-8.6758 3.3945-13.117h-.003906c-5.0234-.54297-9.918-1.957-14.461-4.1719 4.9336-.63672 8.582 1.7539 12.578 1.3008h-.003907c2.0078-.33203 3.7305-1.6055 4.6445-3.4219.91406-1.8125.90234-3.957-.027343-5.7656 1.3359-.32422 2.6836-.65234 4.0586-1.0039.91016 2.4961-1.7539 4.0898-1.6055 6.4297h.003906c-.20312 1.2344.21484 2.4844 1.1133 3.3516.95703.40234 2.0312.42188 3.0039.058594 1.125-3.7188 3.6211-1.6562 5.5781-1.4102h.003907c3.0078.83594 6.2148-.30859 8.0156-2.8594 1.5312-3.1875 3.3906-6.3281 4.6445-9.4805-4.8984-1.7148-8.8906 1.875-13.648 1.4258l-.003907-.003906c-2.7305-1.1328-5.875.011719-7.2422 2.6328 1-3.0898-1.4727-2.7969-3.1719-3.2344-1.7969.39844-3.625-.5-4.4141-2.1641 4.3594.6875 8.8008.63281 13.137-.16016 7.0234-.39453 15.945 2.7305 19.477-7.6992.93359-2.7617 1.3008-4.3828-2.8789-5.7539 4.6992.25391 8.7656-3.2344 9.2344-7.9141.14062-2.8867-4.0742-4.1367-7.4727-3.8555.75781-.62891 1.5977-1.1602 2.4922-1.5703-2.7188-2.4336-6.3398-3.6133-9.9688-3.2461-3.6328.36328-6.9453 2.2383-9.125 5.1641-1.168-2.2422 2.2266-3.4336 1.2539-5.6953-3.2031-.38672-6.4531-.75391-9.6992-1.1719-9.4453-1.2109-19-1.168-28.438-2.668h-.003906c-2.6953-.86328-5.5781-.97656-8.332-.32031-2.7539.65234-5.2773 2.0469-7.3008 4.0312-4.7812 4.9766-11.023 8.3047-17.824 9.5-10.941 2.3008-21.992 4.0508-33.109 5.2383-14.098 1.668-28.379.95312-42.238-2.1133-.11328.46484-.1875.94141-.22266 1.418.027344 1.4023.25391 3.2266-1.5195 3.3555-1.3047-.28516-2.1562-1.5391-1.9414-2.8594.1875-1.8203-1.0586-3.4766-2.8594-3.8047-4.6914-.64844-9.1133-3.832-14.152-1.5469l-.003907.003906c-.45312.17969-.96484.13281-1.3789-.125-.41406-.26172-.67969-.70312-.71484-1.1875-.33203-1.2539-1.4219-2.1641-2.7148-2.2617-7.9844-2.4492-15.82-5.3594-23.473-8.707-8.6406-2.332-16.523-6.8867-22.855-13.211-.70312-1.043-1.8672-1.6836-3.1289-1.7148-5.6172-.25781-11.246-.14062-16.848.35547-11.566 1.457-22.977 3.9492-34.098 7.4414-5.5898 1.4258-11.043 3.3398-16.297 5.7188-1.4023.36719-2.2617 1.7773-1.9453 3.1953.75781 1.7031 2.2109.46484 3.2188-.066406v-.003906c2.043-.9375 4.4375-.67188 6.2227.69141-.25781 1.9531-1.3594 3.6953-3.0117 4.7656-1.6133 1.3477-2.1914 3.5703-1.4414 5.5352.28906 1.1094 1.375 1.8242 2.5078 1.6484 2.6875.16797 2.9375-2.1367 3.5977-3.7031 1.25-3.418 2.8047-6.7148 4.6484-9.8555 2.7148 5.6133-.35547 10.938-1.1211 16.219-.87891 6.0586-1.7422 5.9297 3.5938 6.8242.50781-.046875 1.0078.17578 1.3164.58594.30469.41016.37891.94922.19141 1.4297-.86328-.60156-1.9258-.83203-2.957-.64062-1.0352.19141-1.9453.78906-2.5352 1.6562 3.0469 1.707 6.2812 3.0469 9.6406 3.9922 3.3516 1.3672 4.1367.19141 3.125-3.6367 2.1836 4.7969 1.6758 5.6328-2.3906 6.0898h-.003906c-2.3242.035157-4.6406-.36719-6.8164-1.1914-1.3633-.34766-3.1055-2.3125-3.9258-.25-.16406 1.8555.875 3.6094 2.5781 4.3633 2.3984 1.7422 5.4141.78516 7.7148 2.4219-2.1836.16797-4.3828.09375-6.5547-.21484-.75781-.10938-1.6367-.72656-2.0469.16797-.46875 1.3555-.27734 2.8516.52344 4.043 1.0586 1.9648 2.9844 3.3125 5.1953 3.6445 1.7344.38281 1.0391-1.4883 1.5234-2.2969l-.003906-.003906c1.4688-1.7539 3.5391-2.8984 5.8047-3.207 1.3164-.45703.83984 1.2734 1.4062 1.8438.19141.19531.39844.375.59766.55859v.003906c-.55859.066406-1.0859.27734-1.5391.60938-1.4023 1.1328-2.9414 2.082-4.5781 2.8359 5.1992 5.375 12.012 2.7227 17.945 4.0742h.003906c-.64062 1.7891-2.5 2.8281-4.3594 2.4414-1.2656.14453-3.1719-.87891-3.6289 1.0664-.46094 1.9492 2.1484 1.2422 3.0312 2.9258-3.9258-1.0391-7.5742 2.3086-11.523-.32812 1.457-.85547 3.1758-1.1523 4.8359-.84375.96875-.074219 2.0234.011718 1.6758-1.4531-.78516-3.2773-3.8633-2.0508-5.8672-2.7773-2.625-.95312-1.5117 1.4883-1.832 2.5781-.38672 1.3125.94531 3.8047-1.5234 3.6367-2.1367-.14453-1.3594-2.5586-1.2656-3.9531.21875-3.2109-.23828-5.5469-4.5547-4.9414 1.7617 3.9766 2.8984 8.207 3.3633 12.531.12109 1.5234.97266 2.8867 2.2852 3.6641 1.3125.77344 2.9219.85938 4.3125.23047-3.418 1.6562-4.8867 5.7383-3.3047 9.1875 1.6992 4.1719 2.8828 8.5352 3.5273 12.992-.003906.47656.19531.93359.54688 1.2539.35156.32031.82422.48047 1.2969.4375.55469.089844 1.1172-.10937 1.4961-.52344s.51953-.99219.37891-1.5352c.011719-4.3008.53516-8.7422-4.0977-11.43-.74609-.32422-1.3125-.95703-1.5508-1.7344-.23437-.78125-.11328-1.625.32813-2.3047 1.2031-1.582 2.0273.36719 2.8242 1.0469.64844.92188 1.8477 1.2773 2.8945.85156.59766-.74609.74219-1.7578.37891-2.6406-.52734-3.7773.19922-7.625 2.0781-10.945 0 3.5586.089843 6.3906-.035157 9.2109-.074218.63281.11719 1.2734.53125 1.7617.41406.48828 1.0117.78125 1.6523.80859 1.0898-.22656 1.8125-1.2695 1.6406-2.3672.03125-1.2969.17969-2.5898.27734-3.8867 2.0508 2.9414-2.0938 8.2344 4.2539 8.6758-1.168 1.6133-3.8203-.96094-4.2656 1.7461-.48828 2.9453 2.3477 2.5352 3.9062 2.9102v.003906c4.9961 1.3672 10.199 1.8086 15.352 1.3047-.12109.71094-.53125 1.3359-1.1289 1.7344-.60156.39844-1.3359.53125-2.0391.37109-4.2461.16406-8.5.058594-12.73-.31641-3.2617-.46484-3.7617 1.2305-4.3008 3.4844-.66797 2.7891.65625 3.5859 3.25 3.6094 1.3594.19922 2.6836.58203 3.9375 1.1406-1.457.42969-2.9727.64453-4.4922.62891-5.1836.50781-2.3984 4.5312-2.8594 6.9805-.59375 3.1641 1.7188 2.5977 3.6016 2.1445.64844-.15625 1.3633-1.1055 1.7344.21094v.003906c.23047.59375.23047 1.25.003906 1.8398-.77344 1.0977-1.0039-.46875-1.6016-.48438-1.5234-.40234-3.1133.36719-3.7344 1.8164-.29297.94922-.035156 3.0273 1.0977 2.5039 3.0742-1.4141 4.6523 2.1016 7.7148 1.5547 3.8281-.6875 7.957.64453 11.957-.375.375-.14844.79297-.13672 1.1602.035156.36328.17188.64062.49219.76172.875.10156.39062 0 .80078-.27344 1.0977-.27344.29297-.67578.42969-1.0703.36328-2.1797-.66406-4.5508-.11719-6.2188 1.4414-1.668 1.5547-2.3789 3.8789-1.8711 6.1016-.14453.26953-.35547.5-.61328.67188-.79688-1.5391-1.1445-3.2734-1.0039-5 .21875-.86328.73828-1.8906-.83594-2.0078-.98438-.18359-1.9375.44531-2.1562 1.4219-.73438 3.3516-4.2852 5.7422-3.1523 9.7852.23828.59766.10937 1.2812-.33203 1.7539-.44141.46875-1.1133.64453-1.7266.44922-.57422-.050781-1.082-.40234-1.3281-.92188-.25-.52344-.20312-1.1367.12109-1.6133 1.5234-2.6758-.63672-5.7695 1.2305-8.5586.81641-1.2148-.77734-2.7188-2.2461-2.9492-1.8672-.29297-1.2695 1.3906-1.2773 2.3008-.058594 5.5078-.039063 11.016-.003906 16.523.003906.71484.14844 2.25.50781 1.9805 2.9648-2.2305 4.5.93359 6.3633 1.8086l-.003906.003906c1.4219.59766 3.043.49219 4.375-.28906 1.8164-.67969 1.0352-2.4688.64844-3.625h-.003906c-.33984-.69141-.39453-1.4922-.14453-2.2227.25-.73438.78125-1.332 1.4766-1.6719 0 1.4766-.003907 2.5742 0 3.6758.019531 7.0547.73437 7.582 7.8477 7.8164v-.003907c3.9883-.86719 8.1016-1.0312 12.145-.48438-3.5547 3.3359-7.9414 2.2148-11.652 3.168-2.9766.74219-6.1094.58984-9-.4375-2.9844-1.6328-6.375-2.1289-9.2383-3.8984-1.0703-.66016-3.0977-.91797-3.0234 1.3867.15625 4.707.43359 9.418.98047 14.09.10547.90234-.019531 2.9883 1.6445 2.8945 1.8047-.097656 1.7422-1.8672 1.793-3.3008l-.003906.007812c.40234-3.0859 1.2539-6.0938 2.5312-8.9297.35938 7.9883 6.668 1.0273 8.5625 4.6289v.003907c-1.4844.85547-3.1758 1.2891-4.8906 1.2461-1.7812-.097656-4.0898-.57422-4.2656 2.3203-.8125 2.8398.03125 5.8945 2.1875 7.9141 4.75 3.0234 4.2773-1.4609 4.7461-4.25 1.2734 1.3711 1.8398 3.2539 1.5352 5.0977-.10156 1.9922.31641 3.3203 2.2695 3.4961 1.5352-1.1133-.49219-3.1484 1.2891-4.1602.41016.007812.79297.19922 1.0469.52344.25.32422.33984.74609.24219 1.1445.082031 1.1953.68359 2.2969 1.6445 3.0117.96484.71094 2.1914.96875 3.3594.69922 2.5977-.10547 1.25-2.7188 1.4727-4.2188.089844-2.8711 1.0039-5.6562 2.6328-8.0234 1.3086 4.5781-5.1719 11.301 5.3555 13.676-3.2578.85547-6.3086.40625-5.9297 3.2422.74219 5.5625-1.625 12.102 4.7344 16.32-1.5625.03125-3.4336-.23438-3.168 1.8945.35547 2.8359.33594 5.9062 4.6367 6.207 5.2031.35547 10.41-.60937 15.141-2.7969-3.5156 4.6836-20.051 7.7852-24.047 5.3672-.41016 1.8203-.18359 3.7266.63672 5.4023-.12109 1.8516-.4375 3.6836-.9375 5.4727.94922 7.0625 2.2656 8.0469 9.5273 6.5898.77344-.54688 1.7852-.60938 2.6211-.17188-1.7188 2.5781-4.7773 3.9141-7.8359 3.4258-1.832-.32812-3.707.28906-4.9805 1.6445-1.2734 1.3555-1.7773 3.2656-1.3359 5.0742.64062 3.125.72266 6.3398.24609 9.4922-.1875.62891-.039063 1.3086.39453 1.8047.42969.49219 1.082.73438 1.7305.63281 1.6523.019532 1.2422-1.3594 1.4688-2.3984h.003906c-.37109-1.6562.45312-3.3516 1.9883-4.082-1.1641 6.4961.86719 10.234 7.7227 9.2461-1.7578 4.3789-9.6914.75391-8.8516 8.0312.45312 3.9258-3.5781 9.0664 5.0781 10.285-4.2383 1.6445-7.9922 2.5078-6.6484 6.9062 1.5312 5.0234 6.2539 1.2656 9.2812 2.9102-1.5742.67188-3.5352.35547-3.0391 3.1797l-.007813-.003907c.83203 5.2148.875 10.523.12891 15.75-.71875 5.6914.050781 6.5742 5.7383 7.082 2.4648-.58203 5.0586.11328 6.8984 1.8555-3.7656 0-6.8906.007813-10.012-.003906-2.0039-.007813-5.5664-1.4453-2.4727 2.9531.75781 1.0781-1.2383.92188-1.375 1.7969-3.168-1.4648-6.8359 1.0898-10.184-.89453 1.2812-1.9648 2.8594-.58984 4.0664-1.0586 1.5117-.58594 4.2305 1.5352 4.5117-1.5664.28516-3.1914-2.7422-2.8086-4.6797-3.4219-2.9375-.92969-1.0234 3.0391-3.1328 3.0625-2.5195-.92969-1.8398-4.1797-4.043-6.2461 0 3.3633-.18359 6.0859.039063 8.7734l-.003907-.003906c-.32422 2.418.57812 4.8359 2.4141 6.4453 1.832 1.6055 4.3477 2.1914 6.6992 1.5508 3.8906.47656 7.8359.10156 11.562-1.1016.058594 1.668-1.1914 3.0977-2.8516 3.2578-2.8906 1.0781-6.0078 1.4023-9.0586.93359-1.2109-.70312-2.6602-.87109-4-.46484-1.3438.40625-2.4531 1.3477-3.0742 2.6016-.89063 3.7305-1.1367 7.5898-.72266 11.402 1.2891 14.98 2.9727 29.93 4.332 44.906.70703 7.7695 2.5781 9.8359 10.211 10.238 3.832.20312 5.2461-1.4648 3.1602-4.668l-.003906-.003907c-.99609-2.3438-2.375-4.5-4.082-6.3906-3.1484-2.3711-1.2383-3.1445.84766-3.9023 1.0469-.37891 2.2461-.23047 2.0586-1.8594-.19141-1.0664-1.0195-1.9062-2.082-2.1172-2.2305-.65234-4.0859-2.207-5.1289-4.2852 2.1055-.26953 4.2383.15234 6.0781 1.1992.76562-1.9375.32031-4.1445-1.1406-5.6289-.52734-.47656-.96875 2.5664-2.0977.69141-.54688-.91016.63672-1.9805 1.6836-2.4727h-.003907c.72266-.34375 1.0625-1.1797.78516-1.9258-3.8906-2.1562-1.6445-5.0703-.98438-7.6875.41406-1.4023.17578-2.9141-.64844-4.1172s-2.1484-1.9727-3.6016-2.0898c-1.5352-.33203-3.0508-.73828-4.543-1.2188-1.8516-1.0312-2.8008-3.1641-2.3281-5.2305.074219-1.4336 1.1914-1.0977 2.0977-1.1016 7.418-.046875 9.3398-1.7891 9.0039-8.9023h-.003906c.19531-1.7773.73047-3.5 1.5781-5.0742 1.4531 1.6094 1.6953 3.9766.60156 5.8477-.99609 3.2383 2.2031 6.6211 1.0625 9.2734-2.3164 5.3867 1.207 4.9766 4.2188 5.2773 2.9492-.011719 5.8672.625 8.5469 1.8633-3.3984 1.0625-7.0195 1.1641-10.469.28906-.53125-.19922-1.1211-.16406-1.625.10156-.5.26562-.86328.73438-.99609 1.2852-1.2148 4.0742.95312 8.3867 4.9453 9.8398 4.3594 1.5977 8.8789-1.332 13.152.82422.60156-.11328 1.1797-.32812 1.7109-.62891 1.7109-.375 3.5-.20313 5.1133.48828-2.2656 3.1094-5.3008.36719-7.5469 1.6992v-.003907c-3.668 1.418-7.7109 1.5625-11.473.41016-1.5898-.14844-3.5156-2.3398-4.7383.40625h-.003907c-.40625 3.2148.58594 6.4531 2.7344 8.8867 4.1445 1.2383 8.6133-.34375 11.059-3.9141-.1875 4.8047 2.4336 5.3945 6.0586 5.0703 7.3281-.53516 14.695-.13281 21.922 1.1992-.90625 1.2617-2.4648 1.8789-3.9883 1.5859-5.8086.16406-11.621-.039062-17.406-.61328-1.7031-.28125-5.3281-2.5664-5.4375 2.3906-.12891 5.6992.46094 6.8828 4.9688 6.7227v.003907c5.4648-.12109 10.93.17578 16.348.89062 1.1523.13281 2.668-.19141 3.0039 1.9688v-.003906c-6.4453.36719-12.906.12891-19.305-.70703-3.1406-.74609-4.6133.55078-3.6836 3.8164-.11719 1.6367.97656 3.1172 2.5781 3.4805 2.5547.42969 5.1016-.82422 6.3164-3.1133.40625-.75781.38281-2.1953 1.5977-1.9219.47266.12109.87109.43359 1.1055.86328.23438.42578.28125.93359.12891 1.3945-2.0586 4.5195 1.2852 3.7031 3.6562 3.75 2.0117.64844 4.2031-.16016 5.3164-1.9609.4375-.89844 1.8359-1.3242 2.3164-.35156 1.8516 3.7227 5.1719 1.9219 7.8828 2.3672 2.0664-.38672 4.2031-.023437 6.0195 1.0312-2.7734 1.0859-5.7148 1.6836-8.6914 1.7656-12.133.36719-24.137-1.6133-36.227-1.8516-1.1953-.023438-3.6875-.80078-3.3672 1.0391.32422 1.8516-.44141 4.8516 3.043 5.5391v-.003906c15.582 3.0859 31.418 4.6758 47.301 4.7461 14.582.046875 29.148-.066406 43.734-.75 14.422-.67969 28.902-.33984 43.344-1.1602 1.3477-.078125 3.2852.78906 3.2383-1.9844-.042969-2.4883-1.4648-2.5664-3.375-2.7969-3.1328-.13281-6.2383-.69531-9.2227-1.6719-.97656-.40234-2.5508-.42578-2.1094-1.8125l.003906.003906c.19141-.69922.66797-1.2812 1.3125-1.6094.64453-.32812 1.3984-.36719 2.0742-.10938 2.0781.6875 4.1328 1.4531 6.2148 2.1211 2.9062.93359 4.4961.26172 4.1133-3.2148-.30078-6.0352.45312-12.074 2.2266-17.852 3.2617.48047 6.5547.70703 9.8477.67188 4.1172.75391 5.2891-.89453 4.9844-4.8086v-.003906c-.019531-1.9141-1.3438-3.5625-3.2109-3.9961-1.2656-.32031-2.2031-1.3867-2.3633-2.6836.007813-1.6719 1.4141-1.8086 2.7344-1.8555 2.7891-.097656 2.8125-2.332 2.7031-4.0977l-.003906.003906c-.125-2.9844.30859-5.9688 1.2773-8.7969 1.5391-4.7539.027343-10.406 4.7891-15.508-.49219 1.4297-.36719 2.9961.33984 4.332.71094 1.332 1.9453 2.3086 3.4062 2.6953-1.3828.23828-2.7227.67969-3.9766 1.3047-2.7383 4.1016-4.0977 8.9688-3.8828 13.898-.54297 2.2891.32812 4.6836 2.2148 6.0898 2.5391 1.7188 5.9258 1.4492 8.168-.64062.125-.26953.19141-.5625.18359-.85938.21094.15234.38672.34766.50781.57422.082031.90234.65234 1.6836 1.4883 2.0352.83594.34766 1.793.20703 2.4922-.36719 1.4727-2.0391 1.707-4.7227.60937-6.9844-.21875-1.3906-.28906-3.6914-2.5977-3.043-3.1562.89062-5.8398-2.2617-9.0352-.66406-.94922.47656-1.5742-.77344-1.9258-1.6367v-.003907c-.35547-.74219-.11719-1.6367.55859-2.1055.66016-.49609 1.5859-.40234 2.1367.21484 2.0938 1.2539 4.4766 1.9492 6.918 2.0234 3.0039.76562 3.5586-.32422 3.4414-2.9922-.16016-3.6055-.10938-7.2266-.019531-10.836.26562-10.719.29297-10.789-10.586-11.605-1.5703-.11719-2.9648-.73438-2.4297-1.8789 2.3438-5.0117-1.957-4.1094-4.0742-4.5195-1.9727-.37109-3.8906-.98047-5.7109-1.8164-1.0234-.47656-3-.8125-2.4258-2.3164.6875-1.793 2.3594-.69531 3.5586-.17578v.003906c4.8438 2.2617 10.285 2.8984 15.52 1.8242 1.7773-.38672 3.6445-.60547 3.6328-3.1836-3.0234-.25391-5.957-.4375-8.875-.79297-.39453.0625-.80078-.039062-1.1172-.28906-.31641-.24609-.51562-.61719-.54687-1.0156.054687-.46875.30078-.89453.67969-1.1797.37891-.28516.85547-.40234 1.3203-.32422 4.0312 2.1836 8.668.30859 12.363 2.1523l.003906-12.852c-1.9883.91797-.50391 3.2305-2.8906 3.6641.30859-4.0078-2.3398-3.7617-5.1055-3.7148-7.5312.24609-15.027-1.0859-22.012-3.9102 6.3516-1.5508 11.094 2.4258 16.062.70703-.097656-.64453-.27344-1.2734-.51953-1.875-1.9375-3.4492.91406-8.6836-4.2109-11.02-.91797-.41797-.67578-1.5742.69141-1.8828 5.9336-1.3477 2.9531-6.6523 4.3008-10.023 1.2148-3.0391-1.0859-4.2734-3.6094-5.1133v-.003906c-.62891-.050781-1.2109-.36328-1.6133-.85547-.39844-.49219-.57812-1.125-.5-1.7539.88672-2.3594 2.5742-.38281 3.4414.066406 3.0703 1.5977 3.957.24609 4.2539-2.5352.13281-2.8125.50391-5.6055 1.1094-8.3555 1.125-3.9219.80469-5.2461-3.7461-3.8281-4.8555 1.2266-9.9727-.62109-12.918-4.6719 4.7656 1.2305 9.6484 1.9531 14.566 2.1562 1.082.23438 2.2109-.054687 3.0469-.77734.83984-.72656 1.2891-1.8008 1.2109-2.9062-.14844-2.9648.62109-5.9023 2.1992-8.418-3.3828-1.1094-6.9609-1.5117-10.508-1.1797-1.6758-.15234-4.0742.15625-4.1641-1.9766v-.003907c.12891-.94922.68359-1.7891 1.5078-2.2812.82422-.49219 1.8281-.57812 2.7266-.23828 2.8398.47266 5.7539-.17578 8.1289-1.8086 1.7461-.91797 3.6445-1.5078 5.6016-1.7422 1.9727.21094 1.6562-.8125 1.8398-1.7461.24219-1.25-.47266-1.5312-1.6211-1.6094-3.2539-.12891-6.4961-.44141-9.7109-.94141-8.5703-1.6016-10.77-2.6367-10.566-7.9219.13672-3.3281.46875-6.6484.99219-9.9414 1.1445-7.3633 2.3711-14.715 3.7383-22.043.007813-2.9062.86328-5.7539 2.457-8.1875.38672 1.6836.33203 3.4336-.16016 5.0859-1.1406 6.7773-2.207 13.566-3.2461 20.359-.29297.66016-.29297 1.4141.007813 2.0703s.86719 1.1523 1.5586 1.3633c1.8398.32422 1.4805-1.6523 1.957-2.6523.92578-1.9297 1.6836-3.9375 2.5078-5.9141.44922.78906.54297 1.7344.25391 2.5977-1 2.0508-.82812 4.4766.45312 6.3672 1.2773 1.8867 3.4688 2.9453 5.7461 2.7773 1.6641.15234 3.2383-.375 3.0117-1.9883-.72266-5.1758 2.6914-9.6953 2.0234-14.914-3.5938.75781-8.3438-3.9922-10.688 3.6797-.14062-2.8828 2.0781-4.8125-.74609-6.0664-.8125-.17188-1.3398-.96094-1.1875-1.7773.33984-.95312 1.3711-1.4609 2.3281-1.1523 2.75.91016 2.3438-2.0859 4.1836-3.1367-1.0117 3.0781-.72656 5.0742 2.8047 5.5859 3.1055.44922 5.5195.68359 5.9844-3.3555.47266-4.1016 5.2891-4.5586 6.707-7.9844-.67578 2.8438-.98047 5.7617-.91016 8.6836.94141 2.082.91797 4.4688-.070312 6.5273.023437.16406.085937.32031.1875.44922-.83984.66797-1.5391 1.4961-2.0508 2.4375-.14844 3.8594-.58203 7.7031-1.2891 11.496-.46484 1.0977.71094 1.6523 2.0781 1.7461 4.4531.30859 3.1797-2.9414 3.6758-5.3242.82031-3.9453 3.0039-8.0586-2.4961-10.441zm66.43-130.1c.46484-3.7305.26562-7.5156-.59375-11.176-.29688-.69141-.31641-2.0469.38672-2.0508 4.1875-.027344 1.8203-2.4961 1.2422-3.6875-1.3945-2.8633-1.4922-8.0156-4.4336-8.0547-3.0469-.039062-4.4492 4.8359-5.7227 7.8086h-.003906c-9.1914 19.207-16.816 39.129-22.801 59.562-2.3945 7.5781-3.5352 15.496-3.3789 23.441 1.0977 10.684 3.0469 21.262 5.8281 31.637 4.0391 16.145 6.8711 32.508 9.7891 48.855 2.1055 11.785 3.7422 23.656 5.6562 35.477 1.8398 11.352 4.2031 22.641 5.5547 34.051 2.0508 17.344 5.582 34.441 8.0703 51.711 2.2227 15.453 3.8281 30.934 5.3281 46.445.93359 9.6484 1.4609 19.387 3.2148 28.895 2.3906 12.965 2.6641 26.098 4.2461 39.117h-.003906c-.11719 1.8398.62891 3.625 2.0195 4.8359 1.3906 1.2109 3.2617 1.7031 5.0664 1.3359 11.625-.61328 23.164-2.3672 34.445-5.2461.69141.015625 1.3438-.32422 1.7344-.89453.38672-.57422.46094-1.3008.19531-1.9414-.19141-1.3906-.47656-2.7656-.85547-4.1211.09375-1.7969-.53906-3.5586-1.7578-4.8867-2.582-.54297-1.6484 2.7656-2.8008 4.1094-.69531 1.1367-1.2109 2.375-1.5195 3.6758l-.53516-.089844v-5.6953c-5.3711-.17188-4.5234 4.4531-6.0898 7.1875-1.2852-1.6133.8125-3.8242-.16016-4.7773-5.0234-4.9258.97656-4.3242 2.582-4.6641v.003906c1.7383-.082031 3.3555-.91016 4.4336-2.2734 1.082-1.3633 1.5156-3.1289 1.1953-4.8398-.14453-1.2578.066407-2.5312.60938-3.6758.3125-.69531.27344-1.5-.10938-2.1602-.79688-.84766-1.6914.011719-2.4961.41406-1.0625.85547-1.7734 2.0703-2 3.418-1.2344 2.4766.046874 5.9766-3.3867 8.4766.17188-2.3086.46094-4.6094.86719-6.8867.36719-1.5586.41016-2.3359-1.5391-2.0977-1.2188.14844-2.9375.17188-2.9141-1.4414h.003907c-.09375-.80469.1875-1.6055.75781-2.1758.57031-.57031 1.3711-.85156 2.1758-.76172 2.5898.33594 2.7539-1.6914 3.1367-3.1758.59766-2.2539.9375-4.5703 1.0078-6.8984.035157-1.6836 2.4688-4.1758-.11719-4.8906-2.5938-.72266-1.0898 3.0352-2.6055 4.0664-.21484.14844-.42188.30859-.62109.44922-1-.71875.57813-3.5273-1.8711-2.7227-1.582.51953-2.6562.40234-2.9414-.94531-.32812-1.5586 1.5625-1.0859 2.3789-1.6562.625-.4375 1.4375-.59766 2.0742-1.0195l.003906-.003906c.71484-.40234 1.0547-1.25.8125-2.0352-.39844-1.3086-1.2812-.39844-1.8906-.29297-.75781.12891-1.4492.6875-2.1992.76953-1.1289.125-2.7344.99219-3.2148-.66406-.375-1.2891 1.1562-1.5469 2.0938-2.0664 1.6797-.92578 5.2031-.43359 4.8203-2.6211-.42188-2.4023-3.3438-.86719-5.2305-.6875-.46484-.046875-.92578-.13281-1.3789-.25391-1.1055-.085938-2.5156-.042969-2.2969-1.5977.27344-1.9336 1.6719-.5625 2.5898-.58203 2.3516-.042969 5.4297 1.5117 6.7227-1.3633l.003906.003906c1.8242-4.4141 2-9.332.49609-13.863-.61719-1.9648-5.1719.51172-7.9609.73828-.15625.011719-.30859.074219-.46484.078125-.875.019531-1.9805.53516-2.3086-.80859-.28906-1.1797.51172-1.5352 1.4883-1.9336l-.003906.003907c2.0703-.75781 4.2891-1.0156 6.4805-.75 1.1602.21875 2.3594-.12109 3.2344-.91406.875-.79688 1.3242-1.957 1.2188-3.1328.60938-7.6172-.082031-15.285-2.0586-22.668 0-.45703-.1875-.89062-.51562-1.2109-.32422-.31641-.76562-.49219-1.2227-.48047-3.4609-.33203-6.6758 1.8125-7.707 5.1289-.19922.98828-.40625 1.9688-1.5 1.9375-.81641-.13281-1.3984-.86328-1.3477-1.6875.14844-1.1055-.1875-2.2227-.91406-3.0664-.73047-.84375-1.7891-1.3398-2.9023-1.3555-1.5195-.20312-1.2383-2.3711.23438-2.6914 6.4648-1.3945 3.1055-3.4648.55859-5.6445-1.2734-1.0898-.91406-2.0859.66406-2.0742 3.8086.027344 1.8359-2.8125 2.332-4.4023.67969-2.1758-.83594-2.6875-2.4531-3.0391-1.2461.125-2.4141-.62891-2.8164-1.8125 5.25-2.4492 5.25-2.4492 5.2812-8.8047.003906-.78906-.019531-1.5781.027344-2.3633.34766-5.9414.34375-5.9844-5.1406-4.8125-.89453.19141-1.707.95703-2.4492-.11328v-.003907c-.33594-.44922-.44141-1.0273-.28516-1.5664.15625-.54297.55078-.97656 1.0742-1.1797 2.6094-.92188.12891-1.4258-.14063-1.8125-.95312-1.3633-2.8906-3.6797-.125-3.7891 6.5586-.25781 3.6523-4.7969 4.1406-7.7031.31641-1.8867-.42969-2.7227-2.3086-1.1367l.003906.003907c-1.5234 1.0625-3.6172.72656-4.7344-.75781-1.3125-1.9922.94141-1.832 2.2148-2.2148 1.7812-.53516 1.1094-2.0234.86328-3.1484-.64844-.87109-.98047-1.9375-.94141-3.0234 1.9609-4.8438-.87109-6.2734-4.8398-7.0312-1.0195.17969-2.0625-.12891-2.8242-.83594 1.8906-1.418 4.2422-2.0742 6.5898-1.8398.85938.058594 1.6914-.31641 2.2188-.99609.52344-.67969.67969-1.5781.40625-2.3984.14453-.79297-.12891-1.6055-.72656-2.1484-.59766-.54297-1.4336-.73828-2.2109-.52344-1.2461.16016-2.5039.25391-3.7617.27734-1.1094.027344-2.6367-.046874-1.9766-1.6406l-.003906-.003907c.98047-4.0742.90625-8.332-.21484-12.371 1.3477 2.5156 2.0625 4.0469 2.957 5.4648 1.0898 1.457 3.1328 1.8008 4.6406.78125.79688-.33203 2.7891-1.5234 1.8516-2.8359-1.1055-2.2148-1.4258-4.7422-.90625-7.1641-.070312-4.4648-.67578-4.832-4.8516-3.293-2.0078.46875-3.3047 2.4141-2.9688 4.4453-1.4805-4.1641-1.5156-8.707-.10156-12.898.69141 6.0859 1.6133 7.1523 6.0078 4.6836v.003907c2.9883-1.3008 5.5469-3.418 7.3906-6.1055 3.3086-5.9844.35156-11.637-.24609-18.184-4.9648 5.0898.82812 10.262-1.8672 14.848-3.8164-2.5352-8.4219-3.6094-12.965-3.0234-1.1016.074218-2.2812.76953-2.6719-.77344-.35938-1.4102 1.0156-1.875 1.9297-2.2852 2.4727-1.1094 5.0469-1.9961 7.543-3.0508l-.003906.003906c.77734-.23438 1.4062-.79688 1.7305-1.5352.32031-.74219.29688-1.5898-.058594-2.3125-.75-1.7344-2.4414-1.0742-3.6953-.67578-1.1523 1.1055-2.8047 1.5195-4.3398 1.082 1.4141-1.1133 1.7461-3.6211 4.5469-2.6641v-.003906c.92969-.11328 1.7383-.69531 2.1406-1.5391-.25-2.8164-.82422-5.5938-1.7031-8.2812-1.9727 1.6016-3.8086-2.1172-5.6719-.21875-1.7695 1.0664-3.8945 1.3867-5.8984.89062-.82812.10938-2.0977.30859-2.1094-1.1055-.007812-.48438.20703-.94922.57812-1.2617s.85938-.44531 1.3398-.35547c3.4453.35547 2.7891-1.918 2.6797-3.9336l-.003907-.003906c-1.4336-8.6562-1.4727-17.488-.10938-26.156.38281-.73438.10547-1.6367-.62109-2.0352-2.7422-1.2578-2.4688-2.5312.11719-3.4883v.003906c1.3516-.55469 2.0352-2.0742 1.5469-3.4531-.089844-2.4883-1.4844-1.0859-2.5508-.86328v-.003907c-.30078.11328-.63672.058594-.89062-.14062-.25-.19922-.38281-.51172-.34375-.83203-.089844-.8125.43359-1.5664 1.2266-1.7695 4.7344-1.3789 4.125-5.2188 4.3242-8.957l-10.379 5.2227c0-2.1836.082031-4.2266-.019532-6.2539-.14062-2.7109 1.0117-5.9727-3.5977-6.6016-1.5352-.21094-1.0312-1.7812.44141-2.6172v-.003906c1.9727-1.3047 3.3906-3.3008 3.9688-5.5938-.99219 1.8555 1.6523 1.7891 1.3438 3.2109-.13281.625-1.7188 1.6172.39063 1.7617l.003906.003906c1.1289.0625 2.1641-.63672 2.5312-1.707 1.4531-5.6367-1.5-11.789 2.0742-17.27.39844-.61328.57031-3.4336-1.6406-3.5508-1.8516-.097656-2.3867 1.4531-2.668 3.2266-.47656 3-1.3164 5.9375-2.1641 9.5859-1.4648-4.1484 2.0117-7.3867.0625-10.766l-.003906-.003906c-.11328-1.1094-.95703-2.0039-2.0586-2.1797-1.0781.61719-1.9766 1.5078-2.6016 2.582-3.168-10.953-4.5-22.352-3.9531-33.738.023437 2.1641.73828 4.2656 2.0391 5.9922 1.1992-8.7188-.13672-17.598-3.8398-25.582 1.1875 5.6484 1.6055 11.434 1.2422 17.195-1.3203-1.9922-1.8945-4.3867-1.6172-6.7617.035156-4.1602-.42969-8.3125-1.3789-12.363-.14062-.90625-.71094-1.6875-1.5352-2.0898-1.1328-.30859-1.5391 1.0938-1.7031 1.8477-1.2148 2.8047-1.5391 5.9141-.92188 8.9062 2.7891-.62109 1.125-3.5078 3.4492-5.4258-.79297 5.6758-1.0508 11.414-.76172 17.137-1.1953-2.1641-2.0352-4.5078-2.4844-6.9414-1.6641-2.6367-2.4961-5.7109-2.3867-8.8242.10547-3.1172 1.1523-6.1289 2.9961-8.6406.97266-1.1797 2.5078-1.7422 4.0117-1.4766-.46094 3.6211 4.0664 4.2148 4.5273 7.5898-.16406 2.2812.80859 4.4922 2.6016 5.9102-1.5859-8.6133-3-16.301-4.5859-24.914 3.9062 2.6992 2.7539 6.4219 4.3984 9.043zm-112.26-61.824h-.003906c-.070313-10.914-2.0039-21.738-5.707-32.004-.96875-3.0352 0-7.4062-2.4453-8.9141-2.6094-1.6094-6.1602 1.4336-9.4492 1.5508-1.9844.070312-1.832.60938-1.6523 2.4961 1.4062 14.922 4.1367 29.719 4.1523 44.785h-.003906c-.57031 4.9688-.24219 9.9961.96484 14.848.76953 1.5156.75 3.3125-.050781 4.8086-1.2773 2.4297.11719 3.6445 2.6523 2.7422l.003907.003907c4.3672-1.6406 8.8789-2.8711 13.473-3.6836.83984-.13281 1.8594-.38281 1.1094-1.832-4.3984-8.5039-.78516-17.926-3.0469-24.801zm-38.828-9.1289c-.21094-7.7227-.86719-15.422-1.9648-23.066-.47266-3.6484-.88672-7.4336-6.3867-5.3086-1.3867.33984-2.8359.34375-4.2227.011719-3.3789-.46094-4.6797.55859-4.5938 4.2891.1875 8.3242 1.125 16.566 2.0273 24.812.21484 10.793 1.0508 21.566 2.5 32.266.61719 2.7148-1.1445 6.4023 1.4375 7.9648 2.6719.77344 5.4414 1.1562 8.2227 1.1328 2.1758.46094 2.8945-.15234 2.957-2.2266l.003906.003906c.69141-5.0859.99219-10.219.89844-15.348-.72656-8.1562-1.0195-16.348-.87891-24.531zm-49.883 27.359c0 7.3984 0 7.4023 6.9844 9.2266 1.5039.39453 3.0039.80859 4.5273 1.125 1.0859.22266 2.4023.42578 2.3281-1.2891-.375-8.3203 1.5508-16.539 1.2383-24.816-.44531-11.828-1.4531-23.633-2.0742-35.457l-.003906-.003906c.59375-2.4766.68359-5.0469.26172-7.5586-2.3242-1.0078-4.7852-1.6602-7.3047-1.9414-3.3828-1.6211-4.2109.29297-4.9336 2.7266v-.003907c-.74609 4.2812-1.0078 8.6367-.78125 12.977-1.0273 15.012-.14844 30.012-.24219 45.016zm-27.828-3.1211c2.1602.64453 1.7969-.76953 2.1719-1.4766 1.0781-3.2539 1.7891-6.6211 2.1094-10.035 2.5742-9.2656 4.3477-18.738 5.3047-28.309.78906-8.0195 1.5156-16.047 2.5273-24.039.23438-.64844.14844-1.3711-.23438-1.9453s-1.0156-.92969-1.7031-.96094c-3.1758-.87891-6.0977 2.1797-6.2148 7.1953l-.003906-.003906c-.85938 10.875-2.5781 21.664-5.1367 32.27-2.1211 6.8047-4.9688 13.359-8.4961 19.551-.35938.87109-1.8398 1.6758-.10938 2.5977 3.4258 1.8203 6.8672 3.6211 9.7852 5.1562zm124.38-24.672c2.4062 3.9062 4.457 7.332 6.6133 10.691 1.207 1.8789 4.0195 4.1445 1.6133 5.8672-2.3477 1.6797-2.4219-2.8594-4.5508-3.5l.003907-.003906c.12109 2.0078.98438 3.8945 2.4219 5.3008 1.4766 1.4375 1.9844 3.6016 1.293 5.543-2.1367 2.9453 1.1914 3.7539 2.0078 5.3555.73828 1.4453 2.5625.14453 3.7148-.55469.85938-.44141 1.4883-1.2266 1.7422-2.1562.25-.92969.097656-1.9258-.41797-2.7383-5.2422-11.688-8.0195-24.328-8.1602-37.133-.88672-6.1484-2.3398-12.199-4.3398-18.078-.60156-1.7344-1.9023-3.1367-3.5898-3.8672-1.6836-.72656-3.5977-.71094-5.2734.042968-3.9336 1.8789-1.6172 4.8086-.57031 7.1953.30859 2.2109 1.6953 4.125 3.6992 5.1055.57422.17578 2.6523 1.7773-.28906 2.7188-3.6484 1.1641-3.5625 4.0195-1.8594 6.7773v-.003907c1.7344 4.043 4.7695 7.3906 8.6172 9.5195 2.207.76563 3.3906 3.1602 2.6562 5.3789-1.6602 2.4141-2.6875-1.5078-5.332-1.4609zm-183.73 182.95c.54688 9.8203 3.2695 19.07 2.9453 28.609-.023437.40234.12109.80078.40234 1.0898.28125.29297.67188.45312 1.0781.44531 1.4297-.054687 1.0703-1.3281 1.0898-2.125.082031-2.9844-.035157-5.9766.070312-8.9609.078125-2.1797.70703-3.6289 2.9727-1.3828.63281.625 1.3633 1.1523 2.7969 2.3516-3.4883-.70312-4.3594.60547-3.8828 2.9336.53906 2.625-1.6562 6.0117 2.5742 7.668 2 .78125 2.2578-.53516 2.5898-1.3945.80469-2.0898 1.2656-4.3086 2.082-7.2617.76563 10.91 1.4414 12.465 5.4531 13.367.8125-2.8867-3.8047-5.1992-1.0156-8.1875 3.7578-4.0312 2.6797-9.4609 4.3359-14.09.62109-1.7422-.89844-2.4023-2.4258-2.5781-1.4336-.16406-2.5.10938-2.3359 1.9531v-.003906c-.007812.91016-.082031 1.8164-.22656 2.7109-2.2266-1.707-1.0664-5.4297-3.9297-5.3164-3.0586.125.80859 3.3633-1.8828 4.5312v.003906c.20703-2.0117-.53125-4.0078-2.0039-5.3984-1.4727-1.3906-3.5039-2.0156-5.5039-1.6953-1.0508.015625-2.0508-.45312-2.7109-1.2695-.66016-.81641-.91016-1.8906-.67578-2.918.21875-.64453.14844-1.3594-.19531-1.9492-.34375-.59375-.92969-1.0039-1.6016-1.1328zm214.28-69.938c-7.0586-.12109-7.0547-.12109-8.0469 6.9102-.066407.46094-.23047.91016-.32813 1.3672-1.0234 4.7773-.18359 5.793 4.7383 5.9141 3.4609-.28906 6.9375-.34375 10.402-.16406 3.332.82031 6.8477.35547 9.8477-1.3047 3.4414-2.3633 2.5742-6.7734 4.0508-10.117.33594-.76172-.57812-1.4102-1.4141-1.4844v.003906c-.47266-.050781-.94922.097656-1.3047.41406-.35938.31641-.56641.76953-.57422 1.2461-.375 2.1367-.63672 4.293-1.1133 6.4062-.17188.71875-.63672 1.3398-1.2773 1.7109-.48047-.050782-.91406-.3125-1.1797-.71484-.26953-.39844-.34766-.89844-.21484-1.3594 3.2578-7.9141-1.7695-8.0352-7.3516-8.3438-2.1445-.12109-4.3438-.35938-6.2344-.48438zm-195.79 162.84h-.003906c.21484.55078.34375 1.1328.38672 1.7227-.0625.42188-.55469.77734-.625 1.1992-.050781.38281.070312.76562.32812 1.0508.25391.28516.625.44531 1.0078.4375.3125.078125.64062-.03125.84375-.27734.20312-.25.24609-.59375.10938-.88281-1.1406-4.9141 1.2305-11.289-5.8477-13.773-.625-.1875-1.1406-.64062-1.4062-1.2344-.26562-.59766-.25391-1.2812.023437-1.8711 1.0703-1.7656 2.3086.066406 3.0898.51172 2.0859 1.1914 3.0273 1.7344 2.793-1.5312-.33984-4.707-.15234-9.4531-.3125-14.176-.066406-2.0273-.39453-4.8594-3.0117-4.2656-5.9609 1.3477-5.6719-2.2617-5.5273-6.0469.03125-.79297.27344-1.6406-.89062-1.6641-1.1719-.023438-1.0898.95703-1.0273 1.6836l-.003906.003907c.17578 2.957.76172 5.875 1.7383 8.6719.20703.55078.51562 2.9609-.61328 2.1992-3.6523-2.4727-2.1133 1.2539-2.0078 1.707 1.8438 7.9023 2.0117 16.039 3.4062 23.98 1.1406 6.5117 1.8906 6.6172 7.5469 2.5547zm191.42 150.61c-.19141-1.4648-.39844-2.3906-.41016-3.3203-.023437-1.7578 1.6562-4.875-1.9883-4.0938-2.8398.60938-7.7188-2.2852-8.2148 4.082-.5 5.0312-.48828 10.098.035156 15.121 1.0273 8.3008 2.207 9.3711 10.293 7.4336.69922-.32031 1.4375-.55078 2.1914-.68359 2.8555.14453 2.168-1.6719 1.4883-2.9453l.003907-.003907c-2.9609-4.6211-4.1641-10.152-3.3984-15.59zm29.105-319.11c.41797 1.9688-1.0117 5.3008 2.3359 5.1172 2.4102.58594 4.9102-.52734 6.0859-2.707 1.832-5.7422 3.2852-11.605 5.2383-17.301.80078-2.3359-.1875-3.3203-1.8984-2.8711-2.2578.58984-5.6172-2.1875-6.7656 1.9219-.38281 1.3711.67188 1.5469 1.6914 1.4258 1.2305-.14453 2.4688-1.5781 4.25.73047-4.2773.59375-6.9258 4.2422-11.473 3.7578v-.003906c-1.5586-.55859-3.2773.20703-3.9023 1.7383-.76172 3.332-1.457 6.6875-2.0039 10.062-.17969 1.1172-.49219 2.832 1.332 2.957v-.003906c1.582.39062 3.2305-.33984 4-1.7734-.097656-1.1328.30859-2.2461 1.1094-3.0508zm-85.207 341.09c-.87891-7.7305-1.8047-15.258-2.543-22.805.125-.76953-.0625-1.5547-.52344-2.1797-.46484-.62891-1.1562-1.043-1.9297-1.1484-2.043-.69922-4.3047-.26953-5.9492 1.1289-1.6484 1.3984-2.4375 3.5625-2.0781 5.6914.023438.9375.097657 1.8789.16406 2.8164.35547 4.9805 3.418 9.6133 1.8008 14.883-.33203 1.0781-.26562 2.6602 1.7578 2.4648 3.0781-.28906 6.1562-.56641 9.3008-.85156zm20.609-26.859c-.92969.28906-4.2188-1.7969-4.3516 2.6914.12109 7.332.97266 14.629 2.5391 21.793.66016 3.8867 3.2695 2.0195 5.3281 2.1914 2.8164.23828 2.4375-1.5508 2.5156-3.3047.28516-6.4258-1.3047-12.887-.59375-19.16.52344-4.5938-.79688-4.9844-5.4375-4.2109zm9.5781-5.3086c4.5859.22656 9.1836-.035157 13.711-.78906 6.5469-.19531 13.051-1.0859 19.406-2.6562 1.832-.4375 2.6445-1.5 1.9883-2.9453-.32422-3.1055-1.1133-6.1445-2.3438-9.0156-4.75 3.0898-13.262-1.0234-15.707 8.2617 4.0742-.79688 8.2344-1.0469 12.375-.73828-4.2383.64844-8.4375 1.5078-12.59 2.582-4.1875.80078-8.4609 1.0859-12.723.84375-2.1406.53125-3.7578 2.2812-4.1172 4.457zm24.926-185.09h-.003906c1.2539.125 2.5195.10938 3.7695-.046875 2.1523-.82812 3.2383-3.2305 2.4375-5.3906-.20312-2.1016-1.6953-.73828-2.9648-.015625-2.0625 1.168-2.6016-.79688-2.0039-1.9727 1.9844-3.9102-.81641-4.207-3.2891-4.7812h-.003906c-2.625-.26172-5.207-.83594-7.6953-1.7109-3.9805-2.0742-4.6758-.47656-4.5273 3.0469.082031 1.8828.066406 3.7734.054688 5.6602h.003906c-.11719.71094.0625 1.4414.49219 2.0195.42969.57812 1.0742.96094 1.7891 1.0547 3.8984 1.1094 7.8984 1.8242 11.938 2.1367zm2.1992 23.914h-.003907c-.24219 2.3242-1.582 4.3906-3.6016 5.5625-.46875.57031-.63281 1.3359-.44141 2.0508 2.4883 3.8594.45703 7.7461.33594 11.625-.035156 1.1914-.64062 2.5469-1.1445 1.7969-1.0156-1.5195-1.1484-.82812-1.6133.078125-.58594 1.1406.21094 1.0352 1.0156 1.3359 2.7461 1.1484 5.832 1.1797 8.6016.097657 1.6562-.64453 2.7148-1.9492 1.9766-3.0898v-.003906c-.72266-1.5703-.58984-3.4023.35547-4.8477 1.0352-5.1328 1.6055-10.344 1.707-15.578-3.0898-2.2891-3.7812 5.9961-7.1914.97266zm-24.977 150.15h-.003906c.59375 1.9883 2.0312 3.6094 3.9297 4.4375 1.8984.82812 4.0664.77734 5.9219-.13672 1.1484-.38672 1.7188-.5 1.4648-2.5742-.61328-5.0195-4.0742-4.8086-7.3633-5.5312-2.1836-.48047-6.3164 1.6328-6.0703-1.7773.17578-2.4609 4.5391-.81641 7.0312-1.0195.16016.003906.3125.03125.46484.078125 5.8594 1.2305 6.707.33203 5.0625-5.4648-.45703-1.6133-1.1406-2.6328-2.8203-.88281-.71484.74609-2.2383 2.5234-2.543 1.5977-1.1445-3.5195-4.7148-1.5078-6.4453-3.3594-.51562-.55078-1.8125-.73828-1.9727.15625l-.003906.003906c-.68359 3.2031-1.0742 6.4609-1.1719 9.7383.011719 2.8984 3.3945 1.0312 4.7148 2.3477-.56641.97656-1.6211 1.5664-2.75 1.5312-2.8164 1.5664.57422 2.6914-.14453 4.2852v-.003907c1.1523-.91797 2.0742-2.0898 2.6953-3.4258zm-121.97 38.676c1.1055-.46484 3.9297 1.5039 3.7148-1.4883-.082031-6.8828-1.5039-13.684-4.1914-20.02-.97656-1.5195-2.8125-2.2461-4.5625-1.8125-1.8867.25781-1.5664 2.0703-1.5156 3.4375h-.003907c-.16016 5.1602.058594 10.324.64844 15.457.046875 1.4336.74609 2.7656 1.8945 3.6289 1.1484.85937 2.625 1.1523 4.0156.79687zm20.699-10.973c-.09375 4.0781.33594 8.1523 1.2734 12.121.39063 4.1172 4.0781 2.3242 6.4062 2.8281l-.003906.003906c.53906.21875 1.1562.078125 1.5469-.35547.39062-.42969.46875-1.0586.19922-1.5703-1.3125-6.5391-1.7812-13.215-1.4023-19.867.24219-.94141-.023437-1.9375-.69531-2.6367-.67578-.69922-1.6602-.99609-2.6094-.79297-1.9453.26172-4.1484.22266-4.1094 3.2812h-.003906c-.078126 2.3398-.27734 4.6719-.60156 6.9883zm226.09 41.738.003907-.003907c.050781 4.6875.34766 9.3711.89453 14.027.12891 2.9219 1.3906 3.2305 3.7852 3.1719 5.0391-.12109 4.4102-3.6133 3.6523-6.5117-1.6797-6.3008-2.5742-12.785-2.6719-19.305-.019531-1.4805.35156-3.1211-2.2656-3.1055-.92969-.21875-1.9062.046875-2.5938.70703-.6875.66406-.99219 1.6289-.80859 2.5625.035156 2.8203.007813 5.6367.007813 8.4531zm-70.254-384.36c1.9766-2.3633 5.2695-3.1484 8.0977-1.9258 1.8086.60937 3.8008.29687 5.3359-.83594 1.5352-1.1367 2.418-2.9492 2.3633-4.8594.71484-1.75 1.1562-3.5977 1.3086-5.4805-3.2266.75-6.3867 1.7578-9.457 3.0117-1.3047.64062-2.0156 2.1172-3.8125 1.1055-3.875-2.1758-5.2969.007812-6.5469 3.4062-1.1562 3.1484 1.0625 6.9648-3.2539 9.8867 3.7227.46875 6.3164 1.1602 7.8203-2 1.0938-2.2852-.89844-2.0586-1.8555-2.3086zm-131.3-125.84c-1.418-1.1055-2.3906-2.6875-2.7383-4.457-1.0898-1.832-2.8789-3.1406-4.9531-3.6289-2.1328 6.4062-5.9375 1.9258-9.043 1.5547-.875-.10547-1.8672-1.832-2.6523.019531h-.003906c-.41797 1.043-.007812 2.2383.96875 2.8008 2.0938 1.8711 4.6406 3.1562 7.3828 3.7305 6.7461 1.5625 13.668 2.207 20.586 1.9102-1.8242-2.9258.41406-6.8203-3.0234-9.7227-.29687 4.7734-8.3086.84375-6.5234 7.793zm100.4 435.98c1.9648-.17578 5.8281.21875 4.3477-2.6914-2.832-5.5586.36719-10.582-.10547-15.812-.14062-1.5508 1.2812-4.1484-1.2422-3.7852-1.7578.25391-5.4766-1.7578-5.7852 2.7266h.003907c-.31641 4.7891-.89062 9.5586-1.7227 14.285-.6875 3.875.23438 5.8398 4.5078 5.2812zm5.1211 29.168c1.3398-1.2305 2.5586-2.3477 3.7695-3.4648 1.418-1.3086 2.5117-.86328 2.3828.90234-.29297 4.1172-.89844 8.2109-1.4453 12.305-.23047 1.7109-3.4141 2.6719-1.8945 4.5469 1.2266 1.5117 3.5156-.41016 5.3516.054687h.003906c.46875.089844.94922.070313 1.4062-.058593 2.3203-.55078 4.1133-.89844 2.5273-4.3242-1.7266-4.1602-2.4922-8.6562-2.2422-13.152.11719-7.1875-1.6523-8.6641-8.3633-7.5664 4.293 4.1562-1.9141 6.8555-1.4922 10.758zm-93.281-6.0938c-6.3594-.38672-6.3516-.38672-6.4258 5.3828-.066406 5.1602.80078 10.297.84766 15.391.046874 5.0781 2.0664 5.9805 6.2227 5.3594.72656-.10938 1.4609-.1875 2.2188-.28125-4.9766-18.594-4.9766-18.594-2.8633-25.852zm217.98 66.5c-1.5625-8.3047-2.6016-16.703-3.1094-25.137.070312-1.6641 1.0312-3.9492-2.3086-3.9219-1.0508-.14453-2.1016.27344-2.7695 1.1016-.66406.82812-.84375 1.9453-.47266 2.9414.38281 7.3008 1.4141 14.551 3.082 21.664 1.3477 3.5703 2.707 4.375 5.5781 3.3516zm-307.55-63.777c-.58594 4.0469.042968 8.1758 1.8086 11.859.71484 1.6367 2.5352 2.4844 4.2461 1.9766 2.0703-.36328 1.4375-2.0625 1.4961-3.3945-.45312-5.1758-.50781-10.383-.16016-15.566.80859-4.1562-3.5234-2.6992-5.4102-3.3203-2.1758-.71875-1.8906 1.8164-1.957 3.2891-.082031 1.7148-.023437 3.4375-.023437 5.1562zm183.43-143.42c.058594-.69531-.082031-1.3945-.40234-2.0156-3.1289-.71094-6.3945-.53906-9.4336.48828-4.7656 1.1953-1.6328 6.6719-3.2305 10.027-1.0703 2.25 1.4453 3.0859 3.4141 3.1875 6.3125.33594 9.5859-3.457 9.6523-11.688zm-99.094-293.32c1.8516-4.6211-.62891-9.1875-.17578-13.805.32031-1.2305-.011719-2.5352-.875-3.4688-.86719-.92969-2.1445-1.3555-3.3945-1.1289-1.0859-.039062-2.1641-.19922-3.2148-.48047-1.043-.73828-2.4492-.69141-3.4375.11719-.9375 1.3242-.99219 3.082-.14844 4.4688 4.5234 4.2422 6.3008 10.621 11.246 14.297zm201.9 308.28c3.3984-1.5781 6.707-2.7188 6.2852-6.9844-.17188-5.7188-.75781-11.418-1.7578-17.051-4.0898 3.1211-9.6289 4.8008-8.0859 11.699-.089844 1.0742-.32812 2.1289-.70703 3.1406-.19141 1.6758-.66406 4.1719 1.332 4.4023 2.0312.23438 2.1953-2.1367 2.2461-3.9492v-.003906c-.37891-3.3242.15234-6.6875 1.5312-9.7344.22266 6.582 6.6055 12.578-.84375 18.484zm-385.75-130.96c.003906 2.3359.29297 4.6562.85938 6.9219.054688 1.3242 1.1055 2.3906 2.4297 2.4648 1.3945.5 2.9453-.070313 3.6797-1.3555.48828-4.3125.73047-8.6445.72266-12.98.011719-.86328-1.2695-.55469-2.0039-.68359-3.4336-.60547-5.8438 2.5781-9.2812 2.4297-1.1758-.050781-.99219 2.0586-.91797 3.2969.0625.97656.78516 1.7852 1.75 1.957 1.8164.51562 1.7109-1.2773 2.7617-2.0508zm187.29-199.59c2.9141 0 5.2734-.16797 7.6016.042969 2.6484.24219 2.9766-.63281 2.7852-3.1914-.25391-3.3359-3.5-6.0234-1.9375-9.6875l-.003906.003907c-.23828-.52734-.68359-.92969-1.2305-1.1133-2.4141.55859-3.2305-2.3125-5.8086-2.5195.75391 5.5273.27344 11.148-1.4062 16.465zm-8.8672 465.99v.003906c-2.9258 2.207-5.2539 5.1055-6.7773 8.4414-2.3281 5.9062-1.9414 6.0586-6.9531 2.7031.023437 1.8594 1.1836 3.5156 2.9219 4.168 3.5234.49609 7.0781.77344 10.625 1.0898 1.5469.14062 2.2109-.32422 1.9219-2.1758-.71094-4.5312-1.1367-9.1094-1.7383-14.227zm57.973 15.32h-.003906c-.52344-2.5352-1.2539-5.0273-2.1797-7.4492-1.2031-2.5352 1.0469-7.0977-1.6758-7.4141-3.0078-.34766-4.4414 4.2617-6.8086 6.4766-2.4414 2.2852-.011719 4.668.37891 6.9141.33594 1.9336 2.3516 1.5586 3.9375 1.4922 2.0156-.082032 4.0352-.019532 6.3477-.019532zm-64.43-467.86c-.9375.88672-1.0898 2.3281-.35938 3.3945 4.832 4.6211 4.9492 11.988 9.8867 16.547 1.9141 1.2109 2.7969 3.543 2.1562 5.7188-2.4375 4.0859.41797 5.9727 2.5078 8.9883 1.1484-13.164-4.1367-26.074-14.191-34.648zm214.29 286.17.68359.03125c.12891.75.19141 1.5078.17969 2.2695-.12109 1.2656-.53125 2.8242 1.3516 2.7891 1.7969-.035156 1.6094-1.9258 1.4844-2.9609.37109-3.8555-.17188-7.7422-1.582-11.348-.23828 1.8828-.78906 3.7148-1.625 5.418-1.8984-5.4375 1.3945-10.086 1.3047-15.609-2.7734 2.9961-4.6797 6.6836-5.5273 10.676-.84375 3.9922-.59375 8.1406.72656 12 .14062.55469-.13672 1.3281.69141 1.5156.39062.082031.80078 0 1.1289-.23047.32812-.22656.55078-.58203.60547-.98047.26172-1.1758.45703-2.3711.57813-3.5703zm-364.35 220.82c-.12109 2.5703.066407 5.1484.56641 7.6758.17969.85547.70703 1.5977 1.4531 2.0469.75.45312 1.6484.57031 2.4883.33203 2.4219-.50391 1.5-1.9766 1.2188-3.5508-.66406-4.6016-.62891-9.2812.11328-13.871.14844-1.1875 1.1953-3.0391-.96875-3.4102-.83594-.26172-1.7383-.17188-2.5078.24609-.76562.41797-1.332 1.1289-1.5664 1.9688-.69141 2.8008-.96094 5.6836-.79688 8.5625zm194.27-534.53c-.99609.39844-2.7305-.77734-3.1445.85938-.34375 1.7109.089843 3.4844 1.1797 4.8438 1.7422 2.5039 5.582 2.4414 6.6133 6.0781.41016 1.4453 2.7539-.41797 4.2578-.46484 1.2617-.042969 1.3398-.84766 1.25-1.9531l.003906-.003906c-.078125-2.5977-1.1992-5.0586-3.1094-6.8164-1.9141-1.7617-4.457-2.6797-7.0508-2.543zm53.559 345.63c-.48047 2.2383.046876 4.5703 1.4414 6.3828s3.5156 2.918 5.8008 3.0273c5.4414-.59375 1.6836-5.7383 2.9648-8.6094.39453-.82031.23828-1.8047-.39062-2.4609-.63281-.66016-1.6094-.85547-2.4453-.49219-2.4766 1-6.2305-.65234-7.3711 2.1523zm-154.21 92.504c-.38281-1.5898 1.0469-4.0938-1.4805-4.7773v.003906c-2.5859-.53125-5.2148-.84766-7.8516-.95312-1.6602-.16406-2.043.80469-2.168 2.2891-.40625 4.7578 1.1836 6.1758 6.9883 7.2734 3.4961.66016 5.6328.67969 4.5117-3.8359zm-30.289-97.73c4.3047-1.7695 4.2656-1.9141 3.0859-7.2578-.10938-1.4297-1.1523-2.6211-2.5547-2.918-1.8203-.35938-1.3281 1.2617-1.5703 2.207-.29297 1.1484-.81641 1.0703-1.5898.38281-1.7852-1.582-2.2266.57812-2.4297 1.2578h-.003907c-.79687 4.5234 1.0352 9.1094 4.7305 11.836.75781.39844 2.2344 2.3125 3.0117.25.55469-.66797.82031-1.5312.73828-2.3984-.085937-.86719-.51562-1.6641-1.1914-2.2109-.70312-.44141-2.0117.26563-2.2266-1.1484zm53.121-297.97c.59766 2.0391 1.0938 4.0586 1.7812 6.0156 1.4414 6.5977 3.9609 12.914 7.4609 18.695.73438.94531 2.1289 2.5898 2.543 1.2305 1.3398-2.8945 1.1992-6.2578-.37109-9.0352-3.9141-4.4961-7.0703-9.5938-9.3516-15.102-.30078-.74219-.23828-2.0078-2.0625-1.8047zm11.293-13.105c2.0586-7-1.6836-13.297 2.9961-18.289-.070313-.24219-.21875-.45703-.42578-.60156-1.7617-1.2812-3.9141-1.9023-6.0859-1.75-1.875 1.082-3.1641 2.9531-3.5039 5.0898-1.1211 2.5938 1.9141.85938 2.4961 2.1797 1.0469.89062 1.6836 2.168 1.7656 3.543-1.918 3.8828 1.625 5.7266 2.7617 9.8281zm239.21 361.32c.011719 1.3945.3125 3.7305 1.8789 2.5703 2.3633-1.75 7.582 2.0078 7.1523-2.9766-.21484-2.4883 1.543-7.1797-2.75-8.1172-3.5586-.76953-6.375 3.5195-6.2812 8.5234zm.95703-27.895c0 5.4688-.023438 9.6875.011718 13.906.015625 1.7031.32812 4.1836 2.0391 3.9805v.003906c2.3008.12109 4.2773-1.625 4.4375-3.9258-.53125-5.4062-1.5547-10.766-2.375-16.145-2.2578 4.5547-.33594 9.1055-.67578 14.484-2.625-3.918-.15234-8.1523-3.4375-12.305zm-204.32-285.51c-.66406-1.3438-.40234-2.9609.65625-4.0234.73828-1.9219-1.1836-4.9492-1.7812-4.4023-2.9375 2.6797-2.3945-.49609-2.8594-1.4414-2.7148-5.5156-5.3203-11.078-7.9648-16.625v-.003907c-.97266 2.7578-.87109 5.7852.28516 8.4727 4.4375 5.5195 5.7344 12.855 11.664 18.023zm-192.56 296.95c3.2617.91016 5.8086.76172 6.1953-2.9453l.003907.003906c.25781-2.6562.29297-5.3242.11328-7.9844-.19531-1.0938-.85156-2.0547-1.8008-2.6328-.94922-.58203-2.1016-.72656-3.1641-.40234-2.3125.019531-2.0234 2.6602-1.4141 4.0352.91406 3.2422.9375 6.6719.066407 9.9258zm293.16-75.074c1.1992-5.5469 2.0273-11.172 2.4766-16.828.28516-1.3047.10938-2.5312-1.8164-2.3711-1.4023.11719-3.0234-.15234-2.9062 2.0078.30469 5.625-2.9648 11.637 2.2461 17.191zm-86.129-291.77c-.50391 7.4492.4375 7.8672 12.75 5.3828-.41406-4.1719-1.8008-6.7383-6.8203-5.1406-1.9766.25781-3.9805.17578-5.9297-.24219zm4.2891 472.42h-.003906c-2.0547 1.875-3.7422 4.1211-4.9727 6.6211-.58594.95312-.98828 2.0859.75 2.4961.91406.21484 2.5312-.51172 2.3633 1.3398-.25 1.1211-1.1445 1.9805-2.2695 2.1836-1.5977.44922-2.9297 1.2383-1.6484 2.7031 1.4414 1.2617 3.4219 1.7148 5.2656 1.1992 1.8242-.32031 1.9258-1.707 1.7617-3.2656-.44922-4.2852-.8125-8.5742-1.25-13.277zm76.336-94.547c.13672-2.9336.96094-5.7969 2.4102-8.3516.37109-.71484.41797-1.5586.125-2.3086-.29297-.75391-.89453-1.3438-1.6523-1.6211-1.9336-.58984-1.7305 1.5938-1.9609 2.4922-.21484 1.2383-1.3086 2.1367-2.5664 2.1016-2.3008.26172-4.5352.92578-6.6055 1.9609 1.1523 2.6016 3.6719 4.3359 6.5156 4.4844 2.5859-.19922.73828-2.7422 1.9805-3.7109-.25391 1.8398.39844 3.6875 1.7539 4.9531zm-194.37-111.42c-.66797 1.2148-1.543 2.1016-2.6953 1.5117-.95312-.49219-2.1992-1.6953-2.6133-.44141h.003907c-.89453 1.6953-.72266 3.7539.44531 5.2773 1.7188 1.7344 1.8555-.15625 2.3828-1.1406.29688-.55859.73438-.44141 1.1016-.078126.67969.66797.34375 3.043 2.3359 1.4688 1.1133-.96875 1.4453-2.5625.8125-3.8984-.50781-1.4883-.52344-3.1016-.046874-4.6016.26172-1.0078.003906-2.082-.68359-2.8633s-1.7188-1.168-2.75-1.0352c-1.1445.050781-3.0312-1.1914-3.1406 1.7031h-.003907c-.24219 1 .050782 2.0547.77734 2.7812.72656.72656 1.7773 1.0195 2.7773.77734.46094.10547.89844.28906 1.2969.53906zm24.18 170.64c-1.1406 1.0703-4.5625-1.5078-4.8086 2.457-.28906 4.6055 3.3281 4.7578 6.332 4.6641 1.8398-.058594 4.7266.49609 4.6094-3.457-.13672-4.5234-3.0742-3.4336-6.1328-3.6641zm142.65 50.035c10.805.64453 12.328-1.0664 9.1133-10.312v-.003906c-3.6953 2.8008-6.793 6.3047-9.1133 10.316zm-259.58-255.07c1.7031.64844-2.2148 4.0938 2.0312 4.2227 6.7344.20703 3.668-5.2305 4.7031-8.2461.98438-2.875-1.8711-2.5352-2.9961-2.5586-4.3359-.085937-3.4609 3.3867-3.7383 6.582zm-.87109 17.016c0 .83594-.007813 1.4648 0 2.0938.023437 1.2734-.0625 2.5977 1.8516 2.5234h.003906c.54688-.003906 1.0664-.23438 1.4375-.64062.36719-.40625.54688-.94531.5-1.4922.54688-3.2109 1.2539-6.3945 1.8711-9.5938.24219-.76953.050781-1.6094-.49609-2.2031s-1.3672-.85156-2.1562-.67188c-1.75-.027343-3.3203.67188-2.7383 2.75.078125 2.4141-.011719 4.832-.27344 7.2344zm103.13 101.48c.46484-2.082.95703-4.25-3.4375-4.3555-5.3008-.125-3.5156 3.7852-3.8047 5.9531.015625 1.332.63281 2.5859 1.6836 3.4062 1.0469.82031 2.4141 1.1211 3.7109.81641 3.2578-.003907 1.7422-3.168 1.8477-5.8203zm-3.75 95.312c.23828 2.043 1.3242 3.8906 2.9961 5.0898 1.668 1.2031 3.7656 1.6484 5.7773 1.2266 1.7383-.046874 3.5859-.089843 3.4688-2.7148.23047-.90625.003907-1.8633-.60156-2.5742-.60547-.70703-1.5156-1.0781-2.4453-.99609-2.9766-.22656-5.8789.29297-9.1953-.03125zm280.84-201.68c-1.8359.24609-3.4844 1.25-4.5508 2.7695-.62109 2.8711-.53906 5.8555.24219 8.6914.375.53906 1.1094.6875 1.6641.33594 1.4414-.019532 2.7227-.91406 3.2383-2.2578.38281-2.9805.49219-5.9961.63281-9v-.003906c-.37109-.25-.78906-.43359-1.2266-.53516zm-107.18 176.35c1.7969 1.6367-1.3281 6.2383 2.4648 6.0352 3.25-.94531 5.4219-4.0039 5.2422-7.3867-.42969-4.0586-4.0703-1.5117-6.0625-2.2852-2.2305-.85938-.83984 2.0938-1.6445 3.6367zm-124.25-410.45c-.79688 5.9766-1.4961 11.164-2.1758 16.355-.36328 2.7852.22656 4.9102 3.6016 5.0234l-.003907.003907c-1.1016-2.5352-1.2695-5.3789-.47266-8.0273 2.6875-4.168 2.2969-9.6094-.94922-13.355zm62.07-17.383c-.76953 1.418-4.1797-2.5-4.5352 1.6289h-.003906c-.003906 2.4805 1.9336 4.5312 4.4102 4.6641 1.6641-.17187 3.2734-.69922 4.7227-1.5391.94141-.28906 2.418.19922 2.043-1.6445.11328-1.4414-.84375-2.75-2.25-3.082-1.4609-.082032-2.9258-.089844-4.3906-.027344zm210.87 523.47c-.91406 3.2695-1.9805 6.5117-2.6641 9.8281-.23828 1.1562-.94531 3.1094.90625 3.6484h-.003906c1.6484.69141 3.5508.37109 4.8789-.82812 1.1875-1.1602 1.293-3.0312.24609-4.3203-1.8086-2.4453-2.9648-5.3125-3.3672-8.3242zm-296.01-37.289c-1.5234-.24609-1.0703-1.4141-1.3828-2.207-.92578-1.9609-3.0469-3.0547-5.1797-2.6719-1.6133.19922-.78906 2.5234-.50781 4.0312h.003906c1.5195 3.1367 5.1523 4.6367 8.4414 3.4844 3.7422-1.3008.97266-3.9609 1.4414-7.1523zm241.62-318.38c-.92969-.89062.39453-3.7852-2.6641-4.0938-1.2461-.125-2.332.09375-2.3906 1.4766-.37109 3.0859-.17188 6.2109.59375 9.2227.57422 1.7422 1.582.61328 2.4648.77734 1.3438.25 1.5547-.085937 1.582-1.2773.042969-1.8516.24219-3.7031.41406-6.1055zm-148.87-79.535c3.5859.81641 7.2812 1.0352 10.938.64063 1.3789-.21484 3.1641.0625 3.1562-1.8867-.007813-1.8789 1.168-4.4609-1.2305-5.4648h-.003906c-1.3555-1.1055-2.8125-2.082-4.3594-2.9062.16016 1.6211.78906 3.1602 1.8086 4.4336.90234 1.0977 1.1016 2.6133.50781 3.9062-1.1641 1.4375-2.2734-.085938-3.3945.019531-2.3516.21875-4.9961-2.5-7.4219 1.2578zm-29.082-91.09v-.003907c-1.1133-.14062-2.2383-.19531-3.3594-.16406-1.5312.22656-3.9648-.35938-3.2109 2.5469.58594 2.2539.87109 5.7148 4.1289 4.8945 2.7188-.6875 3.1602-4.6914 5.7773-6.2539.38281-.23047-.37891-1.0117-1.0781-1.0195-1.0938-.015625-2.1875-.003907-2.2578-.003907zm178.5 215.73 1.0977.60156c2.2695-2.3477 4.3164-4.8945 6.1172-7.6133.37109-.52734.47656-1.1914.28906-1.8047-.1875-.61328-.65234-1.1055-1.2539-1.332-2.6445.51562-4.9297 2.1719-6.2344 4.5312-.058593 1.8711-.015625 3.7422-.015625 5.6133zm-243.48-158.37c.59375-.45312 1.1484-.95703 1.6562-1.5039 2.1875-4.1211 3.5352-8.6328 3.9609-13.277.19141-.77734-.66016-.89453-1.1758-1.1953-.50391-.29688-.99219-.19922-.99609.31641-.019531 2.7734-4.6523 4.1562-2.1953 7.8008h-.003906c.39062.61719.45703 1.3906.17578 2.0664s-.87109 1.1719-1.5859 1.3359c-1.9336.54297-1.0977 1.8203-.64453 2.9336.19531.47656.48047.91406.80859 1.5234zm110.13-52.113c.70312 1.9453 1.2891 4.0117 2.1875 5.9336.99609 1.5156 3.0273 1.9531 4.5547.97656 2.1836-.55469.95312-3.0469 1.9336-4.543.85156-1.3008-1.2852-1.8477-2.1289-1.8633h.003907c-2.0586-.92969-4.375-1.1055-6.5508-.50391zm-78.676 482.38-1.3125-.72266c.089844 1.4922-.47656 2.9492-1.5469 3.9922-1.0703 1.0469-2.5391 1.5742-4.0273 1.4531-.64062.11719-1.2188.085938-1.3477.89453-.19531.62891.13672 1.3008.75391 1.5234 2.5547.94922 5.2891 1.3086 8.0039 1.0586 1.5508-.49219.47266-3.9453.17578-6.0625v-.003906c-.16797-.73047-.40234-1.4453-.69922-2.1328zm-151.93-264.86c-1.5469 2.2305-2.2695 4.9336-2.0469 7.6367.019532 2.8828 2.1836 2.2109 3.6602 2.2188 1.3555.007812 3.3633.84375 3.9336-1.2578.36328-.8125.27344-1.7539-.24219-2.4805-.51562-.72656-1.3789-1.125-2.2656-1.0508-2.9219-.22266-1.9531-2.9648-3.0391-5.0664zm371.59 22.801c-.38672 1.9922.054688 3.3438 2.5312 3.1133 2.1133-.19531 4.5508-.39844 3.8516-3.2344-.41406-1.6758.050781-4.8281-2.3867-4.8164l-.003906.003907c-1.2852-.17969-2.5742.32812-3.3906 1.3398-.81641 1.0078-1.0469 2.375-.60156 3.5938zm25.977 157.16c1.4805-.17578 4.2188 1.3945 4.9531-1.7188.48047-2.0391-1.3477-3.0273-3.3438-2.8789-2.5156.18359-6.1602-.82422-6.5195 2.8008-.29297 2.9727 2.8711 1.0742 4.9102 1.8008zm-392.11-161.63c.30469 1.082-.50781 2.5273 1.1445 2.7734 1.0195.14844 2.4922.47266 2.8594-.82031h.003906c.66797-2.3633 1.1211-4.7812 1.3516-7.2227-.21484-1.1172-1.1758-1.9336-2.3125-1.9648-.375-.11328-.78125-.058594-1.1133.14844-.33594.20703-.5625.54687-.62891.93359-.53906 2.0664-.89844 4.1836-1.3047 6.1523zm-.97266 288.09c0 4.668-.035156 9.332.023438 14 .015625 1.2344-.70703 3.2734 1.4297 3.1836 2.0859-.089844 1.168-2.1172 1.3281-3.375v-.003907c.58203-4.7812-.39453-9.6211-2.7812-13.805zm288.41-253.45c-.10156-.44141 1.082-2.5156-1.6719-2.4609l.003906.003906c-1.0977-.24219-2.2422.12109-3 .95312-.75781.82812-1.0156 1.9961-.68359 3.0703.20703 1.4961-1.0195 3.5742 2.0195 3.5352 2.9805-.035157 3.7305-1.6641 3.332-5.1016zm92.074-28.09c-2.043 6.1484-1.2461 12.887 2.1797 18.391.46875-6.2305-2.3086-12.078-2.1797-18.391zm11.156 99.758c-5.668 1.1602-2.2734 5.0625-2.9141 7.5898-.35156 1.3945-.5625 3.7773 1.4531 3.8203 2.4062.054688 2.4961-2.2188 2.3906-4.2188-.65234-2.3398-.96484-4.7617-.92969-7.1914zm-329.12-166.61v-.003906c-3.0977-2.8008-4.7227-6.8789-4.3984-11.043-.28125-.31641-.69531-.48047-1.1172-.4375-.41406.125-.74609.42969-.90625.82812.41406 4.2344 1.4844 8.375 3.168 12.281.5.85547 1.5898 1.1641 2.4648.69531.42188-.71094.69141-1.5039.78906-2.3242zm91.402-172.43v-.003907c.19531-1.6016-.28906-3.2148-1.3359-4.4453s-2.5586-1.9688-4.1719-2.0312c-.99609-.14453-2.332-.53516-2.5977 1.1016-.47656 1.0508-.089843 2.293.90234 2.8906 2.1836 1.3594 4.6445 2.207 7.2031 2.4844zm-14.125 59.641-.95703.26562c1.6758 3.4219 3.2891 6.8789 5.0625 10.25l.003906-.003907c.30078 1.5469 1.2852 2.8711 2.6719 3.6133.74219.20312 1.4922 1.5664 2.3789.27344.56641-1.1289.66406-2.4297.27734-3.6289-.13672-1.0547-.5625-1.5195-1.4375-.92188-2.2305 1.5234-2.8125-.59766-3.5039-1.7031-1.6484-2.625-3.0156-5.4219-4.4961-8.1484zm143.43 327.93-1.2109-.03125v-.003907c-.62109 6.0664-.21094 12.195 1.2109 18.125zm-138.52-360.75c.58594 4.0391 2.1172 7.8828 4.4727 11.215.84766-9.457.84766-9.457-4.4727-11.215zm-70.758 232.16c.25781 2.7734-1.3633 5.9297 2.1367 7.6875.98047.49219 1.7227-.42188 2.0234-1.3789.61328-1.3984.48047-3.0117-.36328-4.2891-.83984-1.2734-2.2695-2.0352-3.7969-2.0195zm-38.773 273.39c-1.4844 1.9648-5.043 2.4453-4.1328 5.4414v.003906c1.0508 1.3008 2.6797 1.9922 4.3477 1.8477 2.6523-1.9844.42578-4.6562-.21484-7.293zm127.36-534c.47266-3.168.45703-5.4336-2.8867-5.7422-1.168-.10938-3.0117-.59375-3.0547 1.1211-.09375 3.6953 3.3516 3.332 5.9414 4.6211zm93.914 463.62c-5.1406-.53516-6.082 1.2617-3.9961 7.9766 1.8672-2.3555 3.2266-5.0703 3.9961-7.9766zm147.81-6.0703c-.51562 3.3125-.96875 6.1484-1.3867 8.9883-.11328.77734-1.0547 1.9258.53516 2.1484v.003906c.54297.12109 1.1133-.007813 1.5586-.34766.44141-.34375.70703-.86328.72656-1.4219.64844-3.1914.14062-6.5117-1.4336-9.3672zm-387.18 80.789c-1.3281-.96875-.25781-4.043-2.3398-3.7695v-.003906c-1.9688.59375-3.4219 2.2578-3.75 4.2852-.32031 1.5508 1.543 1.6055 2.5 1.6719.76953.21875 1.5938.10938 2.2734-.30469.68359-.41406 1.1602-1.0977 1.3164-1.8789zm122.95-464.8c-.5625-4.8008-4.875-6.0781-6.2461-10.316l.003906-.003907c-1.1016 4.5703 1.6836 9.1758 6.2461 10.32zm221.22 55.652c-.12891-5.582-.89844-11.129-2.2969-16.535-.67578 5.6172.11719 11.312 2.2969 16.535zm9.1953 42.957h.003907c-1.75 2.9883-2.1289 6.582-1.0508 9.8711.40234.22656.86719.30078 1.3203.20312.39453-.050781.73828-.29688.91406-.66016.17188-.35937.15625-.78125-.046875-1.125-.58984-2.7305-.97266-5.5039-1.1367-8.2891zm-161.49-100.7c-1.5078 6.3047-1.1484 6.875 4.9453 7.6133zm-69.168 403.46.007813-.003906c2.4414-1.9766 4.5664-4.3164 6.3008-6.9375.38281-.28906.62109-.72656.66016-1.2031.035157-.47656-.12891-.94922-.46094-1.2969-.91406-.75391-1.7695-.011719-2.3359.77344-1.918 2.6055-3.332 5.543-4.1641 8.6641zm-23.355-12.164c-3.1719-.66797-5.3555-1.0078-6.2773 1.8047-.34766 1.0586-.28125 2.6094.86328 2.7891 3.1211.48828 3.0352-2.8242 5.4141-4.5938zm-22.016 9.3633c-1.9531 1.4141-3.1172 3.6758-3.1289 6.0859-.39062 1.3047.70312 1.9844 1.957 1.8984 1.0742-.074219 2.1406-.21484 1.8086-1.9141-.36719-1.9062-.42188-3.875-.63672-6.0703zm154.03-411.1c-1.4062 4.6914-.25 6.3711 5.6992 8.3477zm135.18 204.26c-.28125-.94531-.125-2.5781-1.8398-2.3516h-.003907c-.70312-.046874-1.3945.22656-1.875.75-.47656.52344-.69141 1.2344-.57812 1.9336.23047 1.4531.15234 3.4648 2.1055 3.4336 2.0117-.035156 1.6602-2.2383 2.1914-3.7656zm-233.99-216.23c-1.0977-3.3906-2.957-6.4844-5.4336-9.0469-.21875 3.8477 1.9336 7.4336 5.4336 9.0469zm-59.344 193.33c-.35156 3.168-.75 6.3281-1.0273 9.5039v-.003906c-.13672.45312-.054687.94531.22656 1.3281.28125.38672.72656.61328 1.1992.61719.75391-.28125 1.2148-1.043 1.1094-1.8438-.21094-3.2383-.71484-6.4531-1.5078-9.6055zm-99.289 230.09.64844.007812c.25-2.3711.58984-4.7422.71094-7.1211.058594-1.1484.22266-2.8867-1.4609-2.8906-1.9648-.003906-1.2422 1.8477-1.1367 2.8555.25781 2.4023.80859 4.7695 1.2383 7.1484zm382.63-280.74c-1.2656 3.1836-1.9297 6.5742-1.9609 9.9961.085938.81641-.76562 2.0664.70703 2.2109 1.8789.17969 1.207-1.4375 1.2266-2.3477.074219-3.2852.027344-6.5742.027344-9.8594zm-387.7 237.93c-.027344 1.5312-.18359 3.3086 1.9023 3.4414.5625.074218 1.1211-.14844 1.4844-.58203.35937-.43359.47656-1.0234.30078-1.5625.054687-1.7383-1-3.3203-2.625-3.9453-1.3789-.13672-.84375 1.6719-1.0625 2.6484zm3.6719-71.773c-.082032-1.1836.51562-2.8789-1.1875-3.0664h.003906c-.71484-.007813-1.3984.29687-1.8711.83594-.47266.53516-.68359 1.2539-.58594 1.9609-.085938 1.4688-.066407 3.168 1.668 3.3672 2.2617.25781.8125-2.2812 1.9766-3.0977zm396.32-13.93h.003906c-1.2188 2.9648-1.168 6.2969.13281 9.2266 1.0352-2.9961.98828-6.2617-.13281-9.2266zm25.984 163.43c-.0625 1.918-.66797 3.7812-1.7383 5.375-.40234.61719-.45703 1.3984-.14453 2.0625.66406.37891 1.4336.51562 2.1836.39453 1.4297-.03125 1.2148-1.2539 1.0898-2.0312-.27344-1.7148-.79297-3.3867-1.3906-5.8008zm-160.31-23.625c1.2578-3.3008 2.7227-6.5156 4.3945-9.6289-2.1836 2.3789-6.9688 3.1406-4.3945 9.6289zm-263.95-59.184v.003906c1.4688-.4375 2.3398-1.9453 1.9844-3.4336.070313-.5625-.125-1.125-.52344-1.5234-.39844-.40234-.96094-.59766-1.5195-.53125-2.0938.16016-1.7461 1.8828-1.5664 3.2305.12891.99219.19141 2.2852 1.625 2.2578zm104.08-161.51c-.67188-2.0312-.64453-4.2227.078124-6.2344-.082031-.8125-.17578-1.5234-1.2148-1.5938-.67188-.046874-1.4844.16016-1.4375.76953h.003906c-.875 2.6641.1875 5.5781 2.5703 7.0586zm-28.445-104.96c-.10156-1.4609.59375-3.3828-1.2305-3.6914-2-.33984-1.4102 1.6289-1.3594 2.6445.0625 1.2344-.89453 3.1953 1.0703 3.5391 1.9609.33594 1.2891-1.5781 1.5195-2.4961z"/><path d="m434.57 242.45c-5.8359.11719-11.555 1.6836-16.637 4.5586 2.4844-3.25 5.9219-5.6367 9.832-6.8281 1.0664-.32812 2.3242-.20312 2.0625-1.8281-.26562-1.1289-1.3828-1.8398-2.5156-1.5977-2.9375.35156-5.9062-.33203-8.3906-1.9297-1.6719-.8125-2.8555-2.3711-3.1875-4.1992-.33594-1.8242.22266-3.6992 1.5-5.0508.20703.42188.34766.875.41406 1.3398-.23047 4.3984-.24219 4.3984 5.1055 4.7852v.003906c.12109-.007812.24219.027344.33984.097657 1.2539 2.3281 4.125 3.2383 6.4922 2.0547 1.0156-2.1875 1.7031-4.5156 2.043-6.9062 1.2891-3.4062 2.8945-6.6875 4.7969-9.793-.69922 4.2031-1.6484 8.3594-2.8398 12.449-1.9219 3.6836-1.0781 4.9648 2.9102 5.1094 1.3672.046875 2.7383.007812 4.3945.007812l-.003906-.003906c-.61328 2.0742-2.6875 3.3555-4.8164 2.9727-1.3125-.53516-2.8086-.34766-3.9492.49609-1.1133 2.0195 1.9492 2.0195 2.4492 4.2617z"/><path d="m430.3 191.2c-.82422 3.5625-1.5234 6.2422-2.0352 8.957-.64453 1.1328-.31641 2.5742.75391 3.3125 4.6211 1.293 9.5703-.19531 12.711-3.8203.68359 4.5117.42969 3.7266-4.2422 4.9727-5.4336 1.2852-10.984 2.0156-16.57 2.1758-4.2773.27344-8.5273-.86719-12.098-3.2422 3.5195-1.4219 7.4648-1.3555 10.938.17969 1.3906.67578 3.0312.58594 4.3477-.23047 1.3125-.82031 2.1133-2.2578 2.1172-3.8047.10938-3.2773 1.5859-6.3633 4.0781-8.5z"/><path d="m488.3 98.324c-5.4336.67969-8.9688 1.8828-8.8867 7.2188.007812.46094-2.9219 2.4258-4.3789 4.207-.55078-.91016-.68359-2.0156-.36328-3.0352.32031-1.0156 1.0586-1.8477 2.0312-2.2852 1.1094-.79297 2.3711-2.207 1.1602-3.4922-1.1172-1.1836-2.1016.61328-3.1602 1.0586-1.1719.49219-1.8359 3.1719-3.5039 1.2695h.003906c-.5625-.77734-.76562-1.7578-.55469-2.6914.20703-.9375.80859-1.7383 1.6445-2.2031 2.3164-1.6758 5.2461-2.2656 8.0273-1.6133 2.6875.37891 5.3516.90234 7.9805 1.5664z"/><path d="m448.3 193.62c.75.99219 1.25 1.5742 1.6602 2.2148 1.5938 2.4961-.51953 3.6289-1.918 4.9688-.60156.57812-1.168 1.4688-2.1914.21875-1.6953-2.0703.51563-2.75 1.293-3.7969v.003906c.46484-1.1758.85156-2.3828 1.1562-3.6094z"/><path d="m272.73 423.77c-1.4844-2.9922-1.918-6.3984-1.2305-9.668 2.2773 2.6992 2.7578 6.4844 1.2305 9.668z"/><path d="m242.71 425.2c-.17578 1.8359-4.1953 1.8281-1.7109 4.4922.64062.6875-.48828.46094-.61719.42188-.86328-.25-2.4102-.39453-2.2109-1.2617l-.003907-.003906c-.40625-1.6094-.35156-3.3008.16016-4.8789 1.0391-1.1953 1.5039.39453 2.2617.62891.69531.21484 1.4023.39844 2.1211.60156z"/><path d="m469.46 113.04-3.0977 2.8398c.082031-2.9062-4.3125-1.5352-4.1836-4.3008.066406-1.4492 1.5234-1.1094 2.1445-.66406 1.5547 1.1172 4.125-.10547 5.1367 2.125z"/><path d="m173.55 132.77c-.32031 3.9297-1.2695 7.7852-2.8203 11.41-1.6562 4.8516-2.9453 9.8203-3.8594 14.863-.46094 1.9727-1.3438 3.8281-2.5859 5.4297-.22656.51953-.66797.91406-1.2109 1.0781-.53906.16406-1.125.082031-1.6016-.22656-1.2617-.86719-.82422-1.8398-.23047-2.8359.46875-.79297.95312-1.5742 1.4297-2.3633 1.4531-2.418 5.1133-5.207-1.1367-6.2812-.875-.15234-1.7812-.65234-1.1172-1.9688.13672-.55469.57813-.98828 1.1367-1.1133.55859-.125 1.1406.074219 1.5039.51953 2.8359 2.2812 3.3633.85156 4.0586-1.9688 1.2266-5.8281 3.3984-11.414 6.4336-16.543z"/><path d="m546.22 420.21c-3.3438 2.0469-7.4609 2.3906-11.098.92578 3.582-1.1523 7.375-1.4688 11.098-.92578z"/><path d="m535.15 427.05c2.543-2.1016 5.8906-2.957 9.1289-2.3359-2.5469 2.0977-5.8906 2.9531-9.1289 2.3359z"/><path d="m356.12 30.074c2.9492-1.0547 3.5039 4.2852 7.1602 1.7969 1.0391-.70703 2.2734 3.4609 3.1523 5.4883 1.2148 1.293 1.4102 3.2422.46875 4.7461-.98047.27344-2.0078.32812-3.0078.15625 2.9375 2.0664 4.1992 5.7969 3.1211 9.2188-1.9336-1.332-3.6875-2.4766-5.3633-3.7227-1.1641-.53906-1.9219-1.6914-1.9531-2.9727 2.2773-4.5898-1.5-7.2109-3.0664-10.527h.003907c-.52734-1.3281-.70312-2.7695-.51562-4.1836z"/></svg>